<mxfile host="app.diagrams.net" modified="2022-02-10T17:48:31.078Z" agent="5.0 (Windows NT 10.0; Win64; x64) AppleWebKit/537.36 (KHTML, like Gecko) Chrome/98.0.4758.82 Safari/537.36" etag="rp3Yqu3fDWtuXG4JfJwW" version="16.5.5" type="github">
  <diagram id="kgpKYQtTHZ0yAKxKKP6v" name="Page-1">
    <mxGraphModel dx="2272" dy="697" grid="1" gridSize="10" guides="1" tooltips="1" connect="1" arrows="1" fold="1" page="1" pageScale="1" pageWidth="850" pageHeight="1100" math="0" shadow="0">
      <root>
        <mxCell id="0" />
        <mxCell id="1" parent="0" />
        <mxCell id="xYpwNppHHwVzktEFXb3G-35" value="" style="rounded=1;whiteSpace=wrap;html=1;fontColor=#292929;" parent="1" vertex="1">
          <mxGeometry x="-530" y="59.19" width="360" height="470" as="geometry" />
        </mxCell>
        <mxCell id="xYpwNppHHwVzktEFXb3G-43" value="" style="rounded=1;whiteSpace=wrap;html=1;dashed=1;fontColor=#292929;" parent="1" vertex="1">
          <mxGeometry x="-120" y="59.19" width="770" height="470.81" as="geometry" />
        </mxCell>
        <mxCell id="xYpwNppHHwVzktEFXb3G-7" value="" style="edgeStyle=orthogonalEdgeStyle;rounded=0;orthogonalLoop=1;jettySize=auto;html=1;entryX=0;entryY=0.5;entryDx=0;entryDy=0;" parent="1" source="xYpwNppHHwVzktEFXb3G-1" target="xYpwNppHHwVzktEFXb3G-36" edge="1">
          <mxGeometry relative="1" as="geometry" />
        </mxCell>
        <mxCell id="xYpwNppHHwVzktEFXb3G-1" value="User" style="shape=umlActor;verticalLabelPosition=bottom;verticalAlign=top;html=1;outlineConnect=0;" parent="1" vertex="1">
          <mxGeometry x="-790" y="270" width="30" height="60" as="geometry" />
        </mxCell>
        <mxCell id="xYpwNppHHwVzktEFXb3G-8" value="Login" style="text;html=1;strokeColor=none;fillColor=none;align=center;verticalAlign=middle;whiteSpace=wrap;rounded=0;" parent="1" vertex="1">
          <mxGeometry x="-740" y="270" width="60" height="30" as="geometry" />
        </mxCell>
        <mxCell id="xYpwNppHHwVzktEFXb3G-10" value="TODO App" style="text;html=1;strokeColor=none;fillColor=none;align=center;verticalAlign=middle;whiteSpace=wrap;rounded=0;" parent="1" vertex="1">
          <mxGeometry x="155.69" y="185" width="100" height="30" as="geometry" />
        </mxCell>
        <mxCell id="xYpwNppHHwVzktEFXb3G-13" value="" style="shape=hexagon;perimeter=hexagonPerimeter2;whiteSpace=wrap;html=1;fixedSize=1;size=70;" parent="1" vertex="1">
          <mxGeometry x="65.69" y="155" width="420" height="300" as="geometry" />
        </mxCell>
        <mxCell id="xYpwNppHHwVzktEFXb3G-15" value="" style="rounded=0;whiteSpace=wrap;html=1;rotation=295;direction=west;" parent="1" vertex="1">
          <mxGeometry x="-40" y="170.47" width="163.75" height="61.61" as="geometry" />
        </mxCell>
        <mxCell id="xYpwNppHHwVzktEFXb3G-16" value="Adapter" style="text;html=1;strokeColor=none;fillColor=none;align=center;verticalAlign=middle;whiteSpace=wrap;rounded=0;rotation=295;" parent="1" vertex="1">
          <mxGeometry x="-4.310000000000002" y="185" width="60" height="30" as="geometry" />
        </mxCell>
        <mxCell id="xYpwNppHHwVzktEFXb3G-27" value="" style="rounded=0;orthogonalLoop=1;jettySize=auto;html=1;entryX=0.5;entryY=0;entryDx=0;entryDy=0;" parent="1" source="xYpwNppHHwVzktEFXb3G-18" target="xYpwNppHHwVzktEFXb3G-21" edge="1">
          <mxGeometry relative="1" as="geometry" />
        </mxCell>
        <mxCell id="xYpwNppHHwVzktEFXb3G-18" value="&lt;div&gt;TaskController&lt;/div&gt;&lt;div&gt;UserController&lt;/div&gt;" style="shape=process;whiteSpace=wrap;html=1;backgroundOutline=1;rotation=295;" parent="1" vertex="1">
          <mxGeometry x="-23.310000000000002" y="193" width="149" height="30" as="geometry" />
        </mxCell>
        <mxCell id="xYpwNppHHwVzktEFXb3G-20" value="" style="rounded=0;whiteSpace=wrap;html=1;rotation=295;" parent="1" vertex="1">
          <mxGeometry x="67.00999999999999" y="222.16" width="150" height="62.94" as="geometry" />
        </mxCell>
        <mxCell id="xYpwNppHHwVzktEFXb3G-19" value="&lt;div&gt;TaskService&lt;/div&gt;&lt;div&gt;UserService&lt;/div&gt;" style="shape=process;whiteSpace=wrap;html=1;backgroundOutline=1;rotation=295;" parent="1" vertex="1">
          <mxGeometry x="79.46999999999997" y="244" width="140" height="28.19" as="geometry" />
        </mxCell>
        <mxCell id="xYpwNppHHwVzktEFXb3G-21" value="Input Port" style="text;html=1;strokeColor=none;fillColor=none;align=center;verticalAlign=middle;whiteSpace=wrap;rounded=0;rotation=295;" parent="1" vertex="1">
          <mxGeometry x="95.69" y="225" width="60" height="30" as="geometry" />
        </mxCell>
        <mxCell id="xYpwNppHHwVzktEFXb3G-22" value="" style="rounded=0;whiteSpace=wrap;html=1;rotation=295;" parent="1" vertex="1">
          <mxGeometry x="333.90000000000003" y="325" width="150" height="64.41" as="geometry" />
        </mxCell>
        <mxCell id="xYpwNppHHwVzktEFXb3G-23" value="TaskRespository" style="shape=process;whiteSpace=wrap;html=1;backgroundOutline=1;rotation=295;" parent="1" vertex="1">
          <mxGeometry x="345.69" y="347.27" width="140" height="28.19" as="geometry" />
        </mxCell>
        <mxCell id="xYpwNppHHwVzktEFXb3G-24" value="Output Port" style="text;html=1;strokeColor=none;fillColor=none;align=center;verticalAlign=middle;whiteSpace=wrap;rounded=0;rotation=295;" parent="1" vertex="1">
          <mxGeometry x="355.69" y="335" width="73.78" height="30" as="geometry" />
        </mxCell>
        <mxCell id="xYpwNppHHwVzktEFXb3G-25" value="APPLICATION" style="text;html=1;strokeColor=none;fillColor=none;align=center;verticalAlign=middle;whiteSpace=wrap;rounded=0;" parent="1" vertex="1">
          <mxGeometry x="205.69" y="163" width="140" height="30" as="geometry" />
        </mxCell>
        <mxCell id="xYpwNppHHwVzktEFXb3G-28" value="use" style="text;html=1;strokeColor=none;fillColor=none;align=center;verticalAlign=middle;whiteSpace=wrap;rounded=0;rotation=295;fontColor=#292929;" parent="1" vertex="1">
          <mxGeometry x="79.47" y="192.16" width="28.78" height="30" as="geometry" />
        </mxCell>
        <mxCell id="xYpwNppHHwVzktEFXb3G-65" style="edgeStyle=orthogonalEdgeStyle;rounded=0;orthogonalLoop=1;jettySize=auto;html=1;entryX=0.448;entryY=1.019;entryDx=0;entryDy=0;entryPerimeter=0;fontColor=#292929;exitX=0.5;exitY=0;exitDx=0;exitDy=0;" parent="1" source="xYpwNppHHwVzktEFXb3G-30" target="xYpwNppHHwVzktEFXb3G-20" edge="1">
          <mxGeometry relative="1" as="geometry">
            <Array as="points">
              <mxPoint x="276" y="230" />
              <mxPoint x="190" y="230" />
              <mxPoint x="190" y="274" />
            </Array>
          </mxGeometry>
        </mxCell>
        <mxCell id="xYpwNppHHwVzktEFXb3G-69" style="edgeStyle=elbowEdgeStyle;rounded=0;orthogonalLoop=1;jettySize=auto;html=1;entryX=0.5;entryY=0;entryDx=0;entryDy=0;fontSize=9;fontColor=#292929;" parent="1" source="xYpwNppHHwVzktEFXb3G-31" target="xYpwNppHHwVzktEFXb3G-24" edge="1">
          <mxGeometry relative="1" as="geometry" />
        </mxCell>
        <mxCell id="xYpwNppHHwVzktEFXb3G-31" value="" style="rounded=0;whiteSpace=wrap;html=1;" parent="1" vertex="1">
          <mxGeometry x="205.69" y="247.26999999999998" width="140" height="100" as="geometry" />
        </mxCell>
        <mxCell id="xYpwNppHHwVzktEFXb3G-29" value="TaskUsesCase&lt;br&gt;UserUsesCase" style="shape=process;whiteSpace=wrap;html=1;backgroundOutline=1;" parent="1" vertex="1">
          <mxGeometry x="215.69" y="279.19" width="120" height="60" as="geometry" />
        </mxCell>
        <mxCell id="xYpwNppHHwVzktEFXb3G-30" value="Uses Cases" style="text;html=1;strokeColor=none;fillColor=none;align=center;verticalAlign=middle;whiteSpace=wrap;rounded=0;" parent="1" vertex="1">
          <mxGeometry x="240.69" y="246.26999999999998" width="70" height="30" as="geometry" />
        </mxCell>
        <mxCell id="xYpwNppHHwVzktEFXb3G-39" style="edgeStyle=none;rounded=0;orthogonalLoop=1;jettySize=auto;html=1;entryX=0.5;entryY=0;entryDx=0;entryDy=0;fontColor=#292929;" parent="1" source="xYpwNppHHwVzktEFXb3G-36" target="xYpwNppHHwVzktEFXb3G-6" edge="1">
          <mxGeometry relative="1" as="geometry" />
        </mxCell>
        <mxCell id="xYpwNppHHwVzktEFXb3G-37" value="Login" style="text;html=1;strokeColor=none;fillColor=none;align=center;verticalAlign=middle;whiteSpace=wrap;rounded=0;fontColor=#292929;fontStyle=1" parent="1" vertex="1">
          <mxGeometry x="-380" y="80" width="60" height="30" as="geometry" />
        </mxCell>
        <mxCell id="xYpwNppHHwVzktEFXb3G-36" value="" style="rounded=0;whiteSpace=wrap;html=1;fontColor=#292929;dashed=1;" parent="1" vertex="1">
          <mxGeometry x="-470" y="80" width="180" height="60" as="geometry" />
        </mxCell>
        <mxCell id="xYpwNppHHwVzktEFXb3G-38" value="User credentials (email, password)" style="text;html=1;strokeColor=none;fillColor=none;align=center;verticalAlign=middle;whiteSpace=wrap;rounded=0;fontColor=#292929;" parent="1" vertex="1">
          <mxGeometry x="-443.75" y="95" width="127.5" height="30" as="geometry" />
        </mxCell>
        <mxCell id="xYpwNppHHwVzktEFXb3G-57" style="edgeStyle=none;rounded=0;orthogonalLoop=1;jettySize=auto;html=1;fontColor=#292929;" parent="1" source="xYpwNppHHwVzktEFXb3G-6" target="xYpwNppHHwVzktEFXb3G-51" edge="1">
          <mxGeometry relative="1" as="geometry" />
        </mxCell>
        <mxCell id="xYpwNppHHwVzktEFXb3G-6" value="AUTH2" style="shape=process;whiteSpace=wrap;html=1;backgroundOutline=1;verticalAlign=top;" parent="1" vertex="1">
          <mxGeometry x="-440" y="170" width="120" height="30" as="geometry" />
        </mxCell>
        <mxCell id="xYpwNppHHwVzktEFXb3G-44" value="Backend" style="text;html=1;strokeColor=none;fillColor=none;align=center;verticalAlign=middle;whiteSpace=wrap;rounded=0;dashed=1;fontColor=#292929;fontStyle=1" parent="1" vertex="1">
          <mxGeometry x="235.00000000000006" y="70" width="60" height="30" as="geometry" />
        </mxCell>
        <mxCell id="xYpwNppHHwVzktEFXb3G-45" value="" style="shape=image;verticalLabelPosition=bottom;labelBackgroundColor=default;verticalAlign=top;aspect=fixed;imageAspect=0;image=https://upload.wikimedia.org/wikipedia/commons/thumb/c/cf/Angular_full_color_logo.svg/1200px-Angular_full_color_logo.svg.png;" parent="1" vertex="1">
          <mxGeometry x="-210" y="59.19" width="50" height="50" as="geometry" />
        </mxCell>
        <mxCell id="xYpwNppHHwVzktEFXb3G-46" value="" style="shape=image;verticalLabelPosition=bottom;labelBackgroundColor=default;verticalAlign=top;aspect=fixed;imageAspect=0;image=https://i.blogs.es/8d2420/650_1000_java/1366_2000.png;" parent="1" vertex="1">
          <mxGeometry x="580.46" y="70" width="50" height="50" as="geometry" />
        </mxCell>
        <mxCell id="xYpwNppHHwVzktEFXb3G-49" value="" style="shape=image;verticalLabelPosition=bottom;labelBackgroundColor=default;verticalAlign=top;aspect=fixed;imageAspect=0;image=https://logos-marcas.com/wp-content/uploads/2020/11/GitHub-Logo.png;" parent="1" vertex="1">
          <mxGeometry x="-260" y="65" width="70.99" height="40" as="geometry" />
        </mxCell>
        <mxCell id="xYpwNppHHwVzktEFXb3G-50" value="" style="shape=image;verticalLabelPosition=bottom;labelBackgroundColor=default;verticalAlign=top;aspect=fixed;imageAspect=0;image=https://logos-marcas.com/wp-content/uploads/2020/11/GitHub-Logo.png;" parent="1" vertex="1">
          <mxGeometry x="530" y="75" width="70.99" height="40" as="geometry" />
        </mxCell>
        <mxCell id="xYpwNppHHwVzktEFXb3G-58" style="edgeStyle=none;rounded=0;orthogonalLoop=1;jettySize=auto;html=1;entryX=0.5;entryY=0;entryDx=0;entryDy=0;fontColor=#292929;" parent="1" source="xYpwNppHHwVzktEFXb3G-51" target="xYpwNppHHwVzktEFXb3G-53" edge="1">
          <mxGeometry relative="1" as="geometry" />
        </mxCell>
        <mxCell id="xYpwNppHHwVzktEFXb3G-60" style="edgeStyle=none;rounded=0;orthogonalLoop=1;jettySize=auto;html=1;fontColor=#292929;entryX=0.468;entryY=0.976;entryDx=0;entryDy=0;entryPerimeter=0;" parent="1" source="xYpwNppHHwVzktEFXb3G-51" target="xYpwNppHHwVzktEFXb3G-55" edge="1">
          <mxGeometry relative="1" as="geometry" />
        </mxCell>
        <mxCell id="xYpwNppHHwVzktEFXb3G-51" value="" style="rounded=0;whiteSpace=wrap;html=1;fontColor=#292929;dashed=1;" parent="1" vertex="1">
          <mxGeometry x="-470" y="264.19" width="180" height="60" as="geometry" />
        </mxCell>
        <mxCell id="xYpwNppHHwVzktEFXb3G-52" value="Module User&lt;br&gt;Managment users&amp;nbsp;" style="text;html=1;strokeColor=none;fillColor=none;align=center;verticalAlign=middle;whiteSpace=wrap;rounded=0;fontColor=#292929;" parent="1" vertex="1">
          <mxGeometry x="-443.75" y="279.19" width="127.5" height="30" as="geometry" />
        </mxCell>
        <mxCell id="xYpwNppHHwVzktEFXb3G-61" style="edgeStyle=none;rounded=0;orthogonalLoop=1;jettySize=auto;html=1;entryX=0.561;entryY=1.005;entryDx=0;entryDy=0;entryPerimeter=0;fontColor=#292929;" parent="1" source="xYpwNppHHwVzktEFXb3G-53" target="xYpwNppHHwVzktEFXb3G-55" edge="1">
          <mxGeometry relative="1" as="geometry" />
        </mxCell>
        <mxCell id="xYpwNppHHwVzktEFXb3G-53" value="" style="rounded=0;whiteSpace=wrap;html=1;fontColor=#292929;dashed=1;" parent="1" vertex="1">
          <mxGeometry x="-470" y="372.27" width="180" height="60" as="geometry" />
        </mxCell>
        <mxCell id="xYpwNppHHwVzktEFXb3G-54" value="Module Task&lt;br&gt;Managment users&amp;nbsp;" style="text;html=1;strokeColor=none;fillColor=none;align=center;verticalAlign=middle;whiteSpace=wrap;rounded=0;fontColor=#292929;" parent="1" vertex="1">
          <mxGeometry x="-442.75" y="387.27" width="127.5" height="30" as="geometry" />
        </mxCell>
        <mxCell id="xYpwNppHHwVzktEFXb3G-62" style="edgeStyle=none;rounded=0;orthogonalLoop=1;jettySize=auto;html=1;fontColor=#292929;entryX=0;entryY=0.5;entryDx=0;entryDy=0;" parent="1" source="xYpwNppHHwVzktEFXb3G-55" target="xYpwNppHHwVzktEFXb3G-71" edge="1">
          <mxGeometry relative="1" as="geometry" />
        </mxCell>
        <mxCell id="xYpwNppHHwVzktEFXb3G-55" value="API &lt;br&gt;REST" style="shape=process;whiteSpace=wrap;html=1;backgroundOutline=1;fontColor=#292929;direction=south;" parent="1" vertex="1">
          <mxGeometry x="-249.01" y="160" width="60" height="290" as="geometry" />
        </mxCell>
        <mxCell id="xYpwNppHHwVzktEFXb3G-66" value="Implements" style="text;html=1;strokeColor=none;fillColor=none;align=center;verticalAlign=middle;whiteSpace=wrap;rounded=0;fontColor=#292929;fontSize=9;" parent="1" vertex="1">
          <mxGeometry x="205.69" y="207" width="60" height="30" as="geometry" />
        </mxCell>
        <mxCell id="xYpwNppHHwVzktEFXb3G-68" value="use" style="text;html=1;strokeColor=none;fillColor=none;align=center;verticalAlign=middle;whiteSpace=wrap;rounded=0;fontColor=#292929;fontSize=9;" parent="1" vertex="1">
          <mxGeometry x="355.69" y="300" width="34.31" height="30" as="geometry" />
        </mxCell>
        <mxCell id="xYpwNppHHwVzktEFXb3G-72" style="edgeStyle=elbowEdgeStyle;rounded=0;orthogonalLoop=1;jettySize=auto;html=1;entryX=0.5;entryY=0;entryDx=0;entryDy=0;fontSize=9;fontColor=#292929;exitX=0.5;exitY=0;exitDx=0;exitDy=0;" parent="1" source="xYpwNppHHwVzktEFXb3G-71" target="xYpwNppHHwVzktEFXb3G-16" edge="1">
          <mxGeometry relative="1" as="geometry" />
        </mxCell>
        <mxCell id="xYpwNppHHwVzktEFXb3G-75" style="edgeStyle=elbowEdgeStyle;rounded=0;orthogonalLoop=1;jettySize=auto;html=1;fontSize=9;fontColor=#292929;exitX=0;exitY=0.25;exitDx=0;exitDy=0;entryX=0.5;entryY=0;entryDx=0;entryDy=0;" parent="1" source="xYpwNppHHwVzktEFXb3G-74" target="xYpwNppHHwVzktEFXb3G-76" edge="1">
          <mxGeometry relative="1" as="geometry">
            <Array as="points">
              <mxPoint x="-70" y="360" />
            </Array>
          </mxGeometry>
        </mxCell>
        <mxCell id="xYpwNppHHwVzktEFXb3G-71" value="is Auth?&lt;br&gt;Check authorization" style="rhombus;whiteSpace=wrap;html=1;fontSize=9;fontColor=#292929;" parent="1" vertex="1">
          <mxGeometry x="-110" y="265" width="80" height="80" as="geometry" />
        </mxCell>
        <mxCell id="xYpwNppHHwVzktEFXb3G-73" value="OK" style="text;html=1;strokeColor=none;fillColor=none;align=center;verticalAlign=middle;whiteSpace=wrap;rounded=0;fontSize=9;fontColor=#292929;" parent="1" vertex="1">
          <mxGeometry x="-85" y="250.1" width="30" height="16" as="geometry" />
        </mxCell>
        <mxCell id="xYpwNppHHwVzktEFXb3G-74" value="Failed" style="text;html=1;strokeColor=none;fillColor=none;align=center;verticalAlign=middle;whiteSpace=wrap;rounded=0;fontSize=9;fontColor=#292929;" parent="1" vertex="1">
          <mxGeometry x="-70" y="342.00000000000006" width="30" height="16" as="geometry" />
        </mxCell>
        <mxCell id="xYpwNppHHwVzktEFXb3G-78" style="edgeStyle=elbowEdgeStyle;rounded=0;orthogonalLoop=1;jettySize=auto;html=1;entryX=0.75;entryY=0;entryDx=0;entryDy=0;fontSize=9;fontColor=#292929;" parent="1" source="xYpwNppHHwVzktEFXb3G-76" target="xYpwNppHHwVzktEFXb3G-55" edge="1">
          <mxGeometry relative="1" as="geometry" />
        </mxCell>
        <mxCell id="xYpwNppHHwVzktEFXb3G-76" value="Erro message" style="rounded=0;whiteSpace=wrap;html=1;fontSize=9;fontColor=#292929;" parent="1" vertex="1">
          <mxGeometry x="-110" y="375.46" width="80" height="30" as="geometry" />
        </mxCell>
        <mxCell id="xYpwNppHHwVzktEFXb3G-79" value="Response" style="text;html=1;strokeColor=none;fillColor=none;align=center;verticalAlign=middle;whiteSpace=wrap;rounded=0;fontSize=9;fontColor=#292929;" parent="1" vertex="1">
          <mxGeometry x="-174" y="387.27" width="60" height="30" as="geometry" />
        </mxCell>
        <mxCell id="xYpwNppHHwVzktEFXb3G-80" value="Request" style="text;html=1;strokeColor=none;fillColor=none;align=center;verticalAlign=middle;whiteSpace=wrap;rounded=0;fontSize=9;fontColor=#292929;" parent="1" vertex="1">
          <mxGeometry x="-170" y="279.59" width="60" height="30" as="geometry" />
        </mxCell>
        <mxCell id="xYpwNppHHwVzktEFXb3G-82" value="" style="rounded=0;whiteSpace=wrap;html=1;rotation=295;direction=west;flipH=1;" parent="1" vertex="1">
          <mxGeometry x="429.47" y="372.27" width="163.75" height="61.61" as="geometry" />
        </mxCell>
        <mxCell id="xYpwNppHHwVzktEFXb3G-83" value="Adapter" style="text;html=1;strokeColor=none;fillColor=none;align=center;verticalAlign=middle;whiteSpace=wrap;rounded=0;rotation=295;flipH=1;" parent="1" vertex="1">
          <mxGeometry x="465.15999999999997" y="386.79999999999995" width="60" height="30" as="geometry" />
        </mxCell>
        <mxCell id="xYpwNppHHwVzktEFXb3G-89" style="edgeStyle=elbowEdgeStyle;rounded=0;orthogonalLoop=1;jettySize=auto;html=1;fontSize=9;fontColor=#292929;" parent="1" source="xYpwNppHHwVzktEFXb3G-84" target="xYpwNppHHwVzktEFXb3G-88" edge="1">
          <mxGeometry relative="1" as="geometry" />
        </mxCell>
        <mxCell id="xYpwNppHHwVzktEFXb3G-84" value="JpaReposoritory" style="shape=process;whiteSpace=wrap;html=1;backgroundOutline=1;rotation=295;flipH=1;" parent="1" vertex="1">
          <mxGeometry x="446.15999999999997" y="394.79999999999995" width="149" height="30" as="geometry" />
        </mxCell>
        <mxCell id="xYpwNppHHwVzktEFXb3G-85" value="" style="endArrow=classic;html=1;rounded=0;fontSize=9;fontColor=#292929;exitX=0.5;exitY=1;exitDx=0;exitDy=0;entryX=0.409;entryY=0.001;entryDx=0;entryDy=0;entryPerimeter=0;" parent="1" source="xYpwNppHHwVzktEFXb3G-22" target="xYpwNppHHwVzktEFXb3G-83" edge="1">
          <mxGeometry width="50" height="50" relative="1" as="geometry">
            <mxPoint x="220" y="390" as="sourcePoint" />
            <mxPoint x="270" y="340" as="targetPoint" />
          </mxGeometry>
        </mxCell>
        <mxCell id="xYpwNppHHwVzktEFXb3G-86" value="Extends" style="text;html=1;strokeColor=none;fillColor=none;align=center;verticalAlign=middle;whiteSpace=wrap;rounded=0;fontColor=#292929;fontSize=9;rotation=295;" parent="1" vertex="1">
          <mxGeometry x="460" y="347.27" width="34.31" height="30" as="geometry" />
        </mxCell>
        <mxCell id="xYpwNppHHwVzktEFXb3G-88" value="" style="shape=image;imageAspect=0;aspect=fixed;verticalLabelPosition=bottom;verticalAlign=top;fontSize=9;fontColor=#292929;image=data:image/png,iVBORw0KGgoAAAANSUhEUgAAAtAAAALQCAMAAACOibeuAAADAFBMVEUAAAAAAAEAAAAAAAAAAAAAAAAAAAAAAAAAAAAAAAFrmMggSocDBQgfR4ItRF9JcJ8mQmdzmMQdMUsrT38zVoRSfbIrUoljj79jj8BGbZ1LdKZOea1smMhGbJkmUIs3YZheibphjb84YpoaJTA0ZaRxn88gSof///8hS4j1eQBMdae1urZReKh9la5afqmGm69We6lvnMy5vLaxt7VmhqtHcqdhg6pEb6ahrbOCmK+aqLKpsrR5kq2ttLR0j62lr7OKnrCTpLFegaqQobBtiqyeq7KWprFqiKuIqchxjayRrMSNoLCUrcOOq8aLqcZBbqaEp8mCpslEdbOZr8Jtmcujs71IdrGxubmdscFHda8jTYqmtb2qtrygsr+tuLtGd7NqmMtFdLAqVZHQ2d/M2OBnlcooUo5plsiBpcpOeq9jkMI0X5kwW5ZYhLhUgLVmk8XU2907Zp83YpxhkslLd65kk8pEcq1QfbLY3NxgjL8lUIwtWJPK1uHb3dtHc6o+aaJekMlbh7tcjsh0nsyGpsZdir2erru4vrx9osnV2dlajchKdqxUfbBXi8dliLJBa6LH09y4yNRagbDM1tyYqrqBm7bM1Ne0xNG9zNiHn7fLz8zH0dd4oMrGztJghbF6ocrK0dJrjLPQ1NJwj7PR2NrGzMzD0NvBzNK8yM7CztesvMfGysezv8XByMivwc+0wsu4xc2Morh8mLa8xcjQ1te8w8O9ytOQpbm8wbzU19XBys24wMKUqLl4lLWrvc2it8hAcrHCxsN0krSvvMKwv8q4w8equcGzvb/G1eKltsLO0s+nusunucbAxL+gtMRAdLXy9vrp8Pjf6fT4+vw/bqvC0+TW4/GpxOF8ptO70OebssXF2OuIrtezyuTO3e1Eebufvd4yWI6Rs9g8YZPjfhxNb5pFaJeZuNplgKBMgL6Uh31Wdp9deJvsew3LgDemn5bXgCzBkV96iZ2lgF/j5+mOnKjr7vCtjW25f0ialpJveYsDVWzb4OSNeWt4gY6znYTJCWZeAAAAJHRSTlMACxEXHCYhLDI3GMg70T4uafxSk3tOr7+YlrTY12foz3bq6TW6HO5wAABy+ElEQVR42uyc3W7SYBjHUc8wih8DNp0bLuwCemB2GSbmDck8oSzBhkLbAEKDJEJJeqISb8k74IRz4yF34dO3naXfH5Ra6PN73jkTNXHNz3/+79PFAoIgCIIgCIIgCIIgCIIgCIIgCIIgCIIgCIIcNQ+KQEmjrPHmDf1UosCvPCggSDZ5UCyBsLXa2atXrymdTuezwfctvtp59+7da41Xr87ONOHB9AKCpInT4B9yxwoVOZTQoDTlZot36DeSFsVyuXb6ChS20rHhITQY/d1faJP3Oj9vLjW5yyUsKEhyFEvU49eiKLvQcSZ0J1pC33z1FNoEzD5Bs5Fd0Dw+rYLHBlRoEcbqM5z9JPRPONoYzChXutlYRpAokVyjIjuQxf+R0ManmQWI7JNyqYAg/i0ZVH4rCO4yZyGhLfT7kNdvsIcgHioL94jaiEKGExpshmNw9eoMWwhiU9lE1I5N5cwldF8bC1eXZyeodb6BsgwFw24zDWeYLHdoarQLA+jW2EHyiHbxUxTFrrM1oYVQCd3JRkJTBhr9y7M3eGHMD8UyuGwg0LE4nXJCg9Dv4nZoBwNtBmh1boDCXH2rbCHYELcTWhBTSOib5BJ6AGdgOg1Ar8ZafaxAMFOXTQSXhKYy77blMGk0bmHgtHRuW7e3Y5gEEtqjcehj5aqCUX1sPACZVVW16QwIdkTjhNtDd7QPcLrR1Fn9/sdKO5SVOa78Asbj8XqcRIfWhh6b1GdvMKmPhVKtquooiuqf0OBy2C1HU242fztZbc3Wp5X+YYwPvzTWGuCzToQOTTWGH2x04XS7V1g/Dh+Q+a2qEzGh7SXa0Hkj//ZgAyyX3xaLxXw+HA5Ho3a7zQKEYZhrCvyEsEC7PRqNhsP5HH7vt+VyCX8QrHeVm4odOqEHxjh8htGBTo1LvUNFK82qBUUN7tCAs0PLoJwNqi/4Oxy1wdnrBADb28P5AgSnhjvNDrOH9jIazj2XJ08LyIEBpfl8AqhAhIQW4dAf7tlsHBZ/m49Y5joFGHa0WCqb302r2IbXngntpKt9WKmc4D3xcCjWqhODGAkNUJM36WkcrPZwsYS/kCH1vdYxE5pCK3UByT6mzdETmuazqbLm8ZAl1xmCaQ/BbGo1rSFWq3WbAxPadLqCjTrbmDaHT2gT2l03/0xmrrMLC17/XplaR09ooAd0K2/Q6YxSstmswoRMaJGqbJjczrLJVtrze6/B6j4QJaF7cCgV3FFnj1LtfEKJltBGLh+cybYeMlc3K8PqQZSE7sJQLvGSmCXAZp7nJ3QiJDTITFkuDlVlC21IayOqoyU0Op0pSqfnPCVEQpvcuzw/CpdN2gvd6no/XEKj0xmjXNVlhgmd0IbLQ/b6SGF5ZbMCq/uGzt4J3XU4jXfE/0jp9C1PCZ/QAl0qjzK1i9sPzFDd/IKk9klod15iTKeIM5xDJ7Qu8+Joc9kNdrJZgdQeCW2MhSmcyxNce6SLGc5hE1o57pLhB1lsPqzrrkrrNndtRk+n014Fv98jTcpVq8r+Ca0Imsw5aBl+/UNogtTOhIbjTGjKFcZ0KpjhHC6hFa0yH9cmIy5DBaS2dmj6YTcaRqeC3+2xf2pVSeIBKSihAbD525Gt5XalrXyo3we0f0JTLvCGuFeKp28lgIcJTGhVWc6z0pkZhhAmK/+ymIU8G/h1aDr/wDa9L0BnSYe34cxndblMtWcwLCfxE0UQZbnZaNy2WuPxmlJ3sKaMx+NWq9FoNmVRUNQJL3Gp+i4J60HXc8th4xKbB7A3nQGejmdCqyns5hiO+gv6tsDahADPW4bh0t6/AlZtDXpmRnslNOXqWQFJlhLVOSihNRZ73GeAxqogNsa+Ciend0MWlYm0xy+Hl/s97w5tcnd3cYJvEBOkVJWAEAk9b18De9G4mYLGPmoLCr8XtdvC+x7gn9B3wAWu8ZKibNPZK6ETf2/C8orYWNczxLolCxMu6S9TmAUlNGWKK4/kdA5O6PZRm7xnr9vywFTaJaFBaUoFld6R8rmbzA6S2jaTjJu8R6/5z92AhKbgFm83nTlOkuD4SJ3QxovhFflgTLayboiTRNqWetPT8E5oymNM6ZgUqxwQkNAcSSCWhcNJZU9aorp7WBNh5p/QlApeD2PtnanOdFykTsZmbiK2Dt9lk7GsSMyOj0QcTF0S2iL1H1zixWobnOSX0Du+e5AUeVw/StZNgSc71emvdqHtfLrAVy2RKNG24ZPQ/C7FmZmIR+ryttXKDg2EyF2fhAahP316jLfDaG2DIrkm9C73QDI51LtfnNuiIsV2Wuh7JvQnEBqoPCogYag95wCfhCZx66GaH5n/0RL4uM3jxjuhqdJ3WKXDlmfvhI4bzpzSzJ/M94xFnon10Do974QGsEqHW9WZOPI51v84JwmNeu5Zy5MYz44RBlToqavSWKWDqHGAZ0LH2dIxOerMIepHjIvi5L1nQlMq2Dt849mZ0PG7Bie06oiFtRi9Ukvv7/yUvsCQdqf8nHX6zMW+CfIiRrM7DYVEfZYzL50pLzGkXThlWdY1oWOUDaJgaw64JkoRi0ffT2n8/g4HpXMW4AgHZ9vnGDpLGM37uCWqA6fOJicFZJsa0XR2S+iIZYNDmyPQjFSoha5FaQxpn9sgIayR0MTWoUmkpnH0r7STz+ko3UPsGkI7+YI76a3bICGE2uwkwoJOxZVGzMUHF/4hyz2PhP7y5Qsu8HROCfAvobeJ8BqFb9aR2IwVElrpjkdCA7jAo7dBQuF0m7eVDq2zhC9PdqalMmGfdt8joQFc4EHd0GCdCU3wGhiO9K+I4tQ9oYHHDwu5pkwAM6EpJEo887hwTpC1woQLkZm70MBFrrcdNWLAEk5P6EjxzCgYzkkjc+FWeFM3ofNepE8JxVQ6UntmxTqyB275UE//p7vQwItCTjm16MyZ90LsGtFJv3koPVehgZy+NqwSxprQhKU6h3mYKnaN/RJmN01uXIUGXhbyR/GcOAoHG65tsOKsjuybBh8iV3puQufyHUvxnCEWWAhoNkw8s3IdSYX1JDikZ+5Cf3ycM6PBZ8YloUnwE8SbYIqMg1P6u7vQH5/kan1Xes4w9oQGAn1mUOeUaUmBC7w7V6E/5mkhXWYAZ0IzQToLdSR1GlzQvqnnIjTwJTcL6RJDIRaCfca3KH/Zu2PVtqEojOOeXYLokFqDCB70Ba1n6mN0MYF0iePBIqpjQQgVTqDGGM19pT6EBg1+mKqENM49R4q26J6cn0leQH8OV1fX8ju5StEpveNBf6Sig89C0OnMNuqGq5ihC30Vgv4wq45xRNKERqeN5fy+1oQuhRv0xym66VkImtAltaP7769El3LBg26c6X//3YSe9e7Z7gUH4XqODvmKB9040X6cNKT/evac22pjKHboMF9JQWt/wjKlF/16tp3nAfmZol36yINufBkpFtCRPj1nNp6H5Rbt8gUPuqH47N04EoImtCI7tjE4VY5W2YIH3dC7HT0hHjTZePbMGq3KpRT0mdYbw5BeeatnG88DVaVos5OCTj6NVDql17p7ntlLkIZrgzZrKehE54H/iAdNtlnnpzXaFFLQKpfRITm6ei5jM2gXhBb3QtDJib7d6IB40Lb57K9qjha/edAaFx0RDxot6DI2g7fNIKMVC1rhomMKYiBLbfnshx1kGxa0vkXHeI++PWex8UQB2Q0LuqHrgWEIWM/6XEB2JwT9XdPjlTF40NazAgVE6dIJWtt9YciDhiiPjVfWEBUs6Iaer68EADlB2/2gErcQrYSg9RwknQDoE/TcevbPDpINC7qhZesuAJvQkJD17KMNJNujoLWN6BD/vN2zHUfyUwZB+nAUtK5V9HjPJjQk9tVuX+UQ3B8HrWqjYwp3Qtv5DV0qAjd/4EGfqXhcGMGd0LYBrcwVBL940ImGX5sN8IReogY3sxtCn5Xg8iUP+mTkvxDuhIbADtj5LQX37SVoTTt3n9mEtgWHPhfgsuVz0JpuCwO4ExoCW3D4Lms/o5SoWnOEcCe0vb1Oowpc8cCCPvd+KzrqMaEpNt7bgclWPGjfj0WPcTyhbUDrVYHb8qB9f0fHFO6EthW0UhmY4pEFnXj+bCVkE7pmNrFR4Fq4sj9Y0Oeeb9xF7oRGXcP52K9260Dsys62LGjfF9F7d0Lva9c+NiqUNVMtWNB+nyEdw53QNWMPVZS4rJmrFQva753oU7gTuj64n5vY6FCzi1vGLOhk5LOpO6FxOBzq13+2x6FFenRZn/7lFQva70crE3dC4+CqY6NEeXDN/ixZ0H/Zu5fVNmIoDMD77rLPUn6AvEV2KUM3WTkU2lxK8CIX03aRG4VQ0BsE+ip+A3sGZzRCIyO0EX2LDqotj4/kvXV8voyUkF3Qz89Y1jhZHyE9hA3dxH8zI0iMW+hl8hMEOvNtjkPQ0HGgLb0mROO+hZrptyjQWR+4ixvaQvRR0GjMLdRMGa5AH0UNbaEnRrCwUBsFOvON6AFs6NZC9HAsHjYynSMN9KqhWwdRoPGwDkgEOuvzdh+ihm4cRLcceLg40BOkgQ730Ma4zS/a5UBjbozrrtXkDOJAh4Y20AEjSJwaqJ1OfuAM9LqhoQtGkLhOBforzkCHsxzGGGH6k2MEiXMjTOB/btAGetXQZ0IIIzYmOpyExUfRZ7rxMp18xhnoVUM/GgHRI7JYGAFX9wptoFcN/egE9MoICmMR+Ys20KGhW6FFd4XRXYyg8CZ0WNnltynaQIeGHuhNQmu658DBaMjiDXRo6C86cswIAtc6coE30KGhudAR+ucqGFgducIb6NDQ3Eotl1c3PHpZiMClX84w/BIXeAO9buiBjGjais7fsYy0U7yBXjc01zJCb39n71LGRnvR0NxJKZW//PDzLSN5c34dw/DTEHGgew09UEpJf/nhZzrQkbnvfh3D8JMtEAe619Bcqxh9AmnW5lrFfmEOdK+heaNikrbucmZVTBSYA91v6N9SQQtlGMnWSCWcow50v6G5XSTQZnS2btUipgvUge43NH9UiwR6WjZTJ2KR8Ad3oHsNHSoaokNKeUrmWQ5xB7rX0J1nVSeoMSP5MXXKeYE70OuG9po6RdH7K/lxdYookAe619CeTCeaNu9yY+ukJ+yBBg3Nj+q6Sny90zGlvByn19EW2AMNG5qbKklSonPyWiWpMfpAw4bmz6pK0g+M5OKgShsV6AMNGrpzVKXR4ehsXFRptsAfaNjQHVumLWj3LgsPpqzKFDncg0CDhvZkWVbJa8TIzrt/L8vk6lVPIc778cTKf2ec39TlFvQc+M673rp4b0Wxjw19Z2/4p6qMzPwsThjZZQflNm2xF4GO76EHouGDcgYtf6NOGdlddraNGxYbsAY6cQ/dCnfXhERDFR2+21lzPdtGDPck0P/Yu5sVp6EoDuDPkHcYOFDK0E3NK5SBdEZ3ropYYVyMK60UiqOhQokfMLOxCxFEcOnCvQquAi7MzW0SO5pQuskLSFcuPL3TpmlNbpN2Purc+0um8wJ//pyefDRhy2EMPO/HLyuVfBR8Q91zrTT+rflAf7+ygU7acjzwPC8MaSrn7pa0cQ6HFk3jqI0b8wSaobGif3joJ01laVvShnnq0lTBo91GrSbGl8KkhjaMIQa670IaCvKm/83SG1CgkMJ9titOoBMb2tAHGGjHZtlNOBEN5b0dm0MhwNCk036+K1CgExoaGXfGgXYIcNjylR0bouEDBzneRQ2BtxwvDOzoH+NAY0fzyJ8V2ggdCzjc412hAv1vQxuYZzTsO8gFHiJ/nPPS3XeAx3mmTgNdEyLQiw1tTBraeOw740gHFHiCp1vSJWoMKPB8UdVJoIXdQxtT+5hn9NMCLufelnRJekMLeGhHjQVayD20gef4QK9x6GCZJsDny+ssl+KwQoBr9FIVL9BJMzTCz9f7Q0xz9NWQg3ryofCL1yHAFzxXGbG+FC7O0FFDv3i9vx86pwIKfDSUC4+LpdiwxKuyqsqGRqyfX+gGBvr6wDnVsmAJS5MXWi5OM4AlqKaqUaBFurASNfRcnhEL9HXPOWUSWIa0ZaQvRrMFy1hfy4IGeqGhDQb/NU8Dvec7EzYsZYXylWHn7rDjwlLmcVnUQC809CTO+rShr1eiREf7O57+yy3pHDVCAktZ7TJKCnRNuD20MaGfBhpV+s6US2E5tyMnj/Ny4FNYrvu8nBzoWk28LYcxpU8DvadNE206LQIZkFBu8c6DEkAGRCkzUaAFu/Sd3NBIZ4FGe0MH5SlpoL588PCM9TQCWRwVy7NAyz00m6DjDY322sOootm6I5NA3rd0hu55FLKwP5Ujqir30AbzQp9vaJboWaQDCpmQUN7lcSZ67QCy+VwscANdEyDQcw1tRA2tzwV6kmiT/ZnmCDJyNbnHW9Oh4lDIxn1bKHACjUQIdFpD67NAo7YWGzpMM7Agq2BfXhRf3VvfgoyskwLiBlq0LYcRL+h4oFFF67M44weLtJs90tRR5CJvFQcDAllZ30oszjLQs4Y2UPLIESUameNjzKWQmeXJ5w9zuju0ITP64bgwUS5wAi3WlsPgNHR7r1LRuqyeWZ5zRxrIQL74ILPGXgA5dN/E4yz42m6uoSM6WmholuhZQzO/KeRgD2RPZ/CwYlLIwXlZiCkXBA90rKFjd3LoaKGhkXbkTPYc+Me0bAp5WP2OvIrI0xzYkEvrXQHJhk7cckzaGc+khkbVDyzPeEZaI8jJHcrhI1Gj07cgH/djsVgoFGOJlg0d20MbUaKTGxp9Y4meUx9BXsRT5DJv3pPQhbzsdhHJhuY3NNLTGhqdOOaCVqtuU8iLtjT5G0QTPcUjkJv5scgUinKGTmroWJzxTGlopHX/STT6bUF+tqc82xLcYXPYopCb9eplEcmGzrDl0PFIb+hqVTtazDM7/xBYhe3vC9vUPSUMKKzAPtkuoqih5Qyd0NDxnR2noavoQ2KiW7dHFFZC+hXhvifeVDwXVlNvl2JxztPQtdrVD3TU0LM8c2fo6tiX+CCNWZ6q/6awIsscNkW5Qv6w49uwItp9V4rynGuGRiIEOtbQEW5DMztH8YLGSEf+WLAyGoRXfvtxUOkTWNno27USSoyzvJcjuaGxoLkNzWja56SGRvX67RGsw/a15pW8+HL4pO0FFNbwp7rN4jw+0mdowQMdNfQszxkaWtOqJ92ooeemjjHceayHOKFyhd6Y13ir+Tasx/78tjRWlA2dd4bO1NDoVXJDM7cx0+uygkHn4H+fq+8qoUNgXeToUylSxEPO0NlnaB0tbWjmy/t/Z+h6hC091kZdv9L8L7fVvYPOILBgffR9e3ubDRuZGlrwQK/e0GjnQ2JDR/5EmV471v2w87+M1r1jRfMCAmeC1neubY+VtrM0dFk29MoNjXZ2TroJM/R8puHsWONcP93YXP9l51x2mojiOPwMfQoXBDXYNFQQsFZBLQtjjBpvi7qBRGxSoyVBHRovJTGm9UbFmBjFekGJQREUbOMFIaJmSrlEDMS44QUmXXXhv6edM0Ongx47Mz3TOd+hwIIFiy9ffj1MmO3AJmvEfOIqspkV2qBCA9OxLpVCE8xpUq+X6PIam6wp6fiD9ZiNaxcaw245Cm85AIJCA554WFVoL5zjXq9XgO2hOank8tzC79DJjjLdXZ9vu2prWVn6OcOv0575+JDLtR4gLzT7z0lSoYMAYaEBz2BYvdDgNALtaZ1IzSz/+NUa6rxigNrnT3VnNZ4CjfWCn/JcdWWR+1zyhgafLVfoIEBaaMDjSaxZaBGfcnzooPZUdGHld0vI1nmtTRO/Zw9e6X5g29O6srA0tzyfXKczM723HS6EotDsHpqs0OpCA+RCY6O9MnxofBgHn5xfnltaWGltuRAK2Wy2B52d3Sc6rrSdOj07e15ydvbcwbYzHSe6L3aehB8Khfa0tK78Wpjrmp/hjfx1U97EB4fD4cJCu9iGprnQeTJpfh0lpHgQlhKS0V12B0LUmRVaw0JzuhQa8GVfEGpqRKKBVCY+5MCsUWj2LAdJoYMyOP0K7QOhgQyTGsF747ft9lycWaE1LXQQ0064oRcJCy0SsLjUya7pm/YcDvvfCs2e5TCu0IvkhZZJTc+mNpJ0LDFkF3GoFpr9pVCLQnNw9Cu0r5CA1aQWoosfmpvtiH8sNHuW4/8LzaFPBhU6kD2ITNoK+4P3RjwNzQi5zmxD61loCDTHkRR6b6mFxmQquNXprsFd79xud3MeezGl2T20HhuaIyy0R4NCY86eBavpuR/WgpQQmx5pcCOQ0OUq9LGKF1pRaKQzaaE9JRU6UCB0nsqwms9EE7d3ZnGLSIU2fENXvtBiof0FdxxcOQsNSFabVmteCPfuvbkT4y5/oS0gtFhof4HPRhZaVWhMxlRe80JXJDFS3YBQ+KzvhmaFFgtd4HPZCn1WFNqEXqcEb2R63Flf3yAh6swKrUDvQksbGiAsdFjzDa0kkH0Bea8pEjuVFrzR+I2b9SINWGlZoWnY0Na55fDL3xRyxIUOG1HonpzWAREwu0xqY41jkfiBkQ3VCElnagttgWu7XKGx0JwBhSbf0FjnntwJoCPDQLVTSSETfv3p+3iT0+msxiChy19odg8tKzRy+T83dMyAQuPZgawOYKsl+vt7AoFMRgC7QW8+pYXgKT4tCBlv+NGLT1+/3xhp2uCUIde5oND1rNAE6HbLweX73E5Y6Jj+GxonWhlpLDQoLeMV0O9DhheQBngwHgHfpAEBvAXg97t+686dJyDw0yOXxnc3ZdkgQ7IZfHZSVmi2oXGhVwlNaaFBaclpEBq+rLa6H45caIlbcu7cfTzx7PO+2s07EFtFtonsztEkItNZtdBm2NAWEFp5D80h2gkLrf+GxjZDngOSy6o+g9D9osx37759+3Ji4tnHj4cP7btUu30zgGz+V6GLKV0Nx2Qb2gJC40LLhSbf0FHjCo0GB3opZkcuy/fu3XsI/r4cG5ucPHq4rrE2y/Y8myXA6NIL7TTVhrbWPbS80EE/WaGj+m9oLDPQ0/Pm/v37X/r6Hj4ceP58eHh47PLk5P79R7fUAY2YWowkNFK6tEKbeENXvtDUFVom9JcB4D3wDRgdHb18uaampqqqapPEljx1MhoVRqsW2nIbuvKFVik0YFyh1YQeqMFUSch1loSGg4Wuk3xuLF5oy27oyhea5kKD0BiZ0FVY52KFblQUmm1oKwmtVmjCDR3ReEMrC11DY6HZhqaEv9xDw8vvJyp0xKqFZhuaCooXGrkcRH0GoY0qNGDaQrMNTQkqhZaEZoVmG9pMqBUa4+fYhmYb2jyoF1oymqjQvVYtNNvQVFC80Nhl9EFU6F62oakoNNvQUqG51fhZodmGNg3KQmOhg+hRu3bCe+hBPTZ0H/WFZhuaEooUWvIZ0U5W6EE9Ct1ngkKzDU0FRQrNyY32c8YVGjBtodmGpgTVDR3MvylkhWYb+g97Z7DqNBBG4YcUuu3iulcohS7sA2Q3MhALWQhhKLhxlU02ui0K7tz4NJ45mfydjPXK3FbIn8w5k6kP8PFxGitqyu0NLcGI3u3Khi4bWk1uG1pg9prOM/SXtRq6bOhZ5KahBWkujjxDfykbehaGLhtaDC3/3ptfCYuhy4bWlNTQArQIOtPQ39/FKRu6bOiM/F9DhwWdGDoHaCtAi5+FZUeaF2RofRt6u2ygU0PTz3juMrR9zVj0ybIR1YDa/WNFqzG0vg293S4c6KuhJbuXGdoIzrwAMxNoDky7iaMrNDi6QiWKDK1tQy8e6KuhIz9D0JmG/noBxAZlLPrahgRFO3Y4zr1FJ7tDp6H1bejFA50amtllGppAm5FpG1aHZQE2DY0ijgc0g2nqGbfPgQ04+0uLobVt6O3SvxSKoROe7zG0RXEPAdSE2Yqi0YmiK/RAmgk1gD7yKDC0vg29orccMdD5hjZD3rGBZPYJjw9ntJMAZ9wV8hZHDI3rGKrD0No29OKBfpChf1yMr3wtNHhsGlqaBc0MPujoEPLsnyHfZm9ofRt68UDfesvxAkP/Cn7GYa3FiaGGn3E568Y8BaL94MAhzgHpw7Giob8pMLS2Db14oBNDk+dsQxNoGJpIE2yL80cceLbws9CMIpXkwIs0I9X8DV029EzynKF3LzT0hYeCNn52AOoJzah9ItRx3grQlLQsaBwVhi4behZ55j20JNfQzGWcHhC0ucF0MHRIYugDb2FawVsOjRt6Xe+hd0y+oV+ZC4vzjkRbIB1wTpHmEaorQTqi+tgf+7Khy98U3m/oXe6GFqDPZhJuaINGcbxkcwjR1TRHzzNuBW859G3oxQP9kA2NmMv5YthxcvAzhdoNTVIxCdVlQxdD32Ho/RXn/PfQiDlfzuY8MTSbLI7bjp4iTT+jCt5y6NvQiwd6MLQAvfMd8jHL0KAZbk4TU11PHW0jntEkvXe0BkOXDT2L/H1Dg2cBOsfQZxCdQG3RYGhDnDsexHUe585JYpKpaLRs6LKhH/CWQ5DONfSZK3qYHYK1jalmOtZNZ0cFuoFyL1D3R5xeg6HLhp5FnjM0irzJNjRCQxPpOLZGTW35KWu6c2isaBf8TEXT0fM3dNnQM8kz76FfuKFPYXP8iTM7klwPikZwR/8jdzUauscH6gVdNnQx9N1vOYhyvqEJtCAtUFt/akJdm1oM3Q0Nhu4Q2BlMB5z9KRu6bOjHvOWQZBsaSRXdBKxrcXQ9tLvG0c9cHUgftWzo/2LolfyW4ybQ+YYWTY+p+XBB17iJtChaAqS7fsjANVd0O3tD69vQi/9xkhg64flNvqF/CtMTQdf+2MYaTzMCopnI0Q44d71DK7QPjwpDa9vQi/9xkhh6wvM+29Dvz0yyoxvDm54myIxFXTo8ehxkxBktG7ps6PsMvZPscze0AC0hyoJz3ZBkHOG6q7soPeoVzVRs3yowtL4NvXCgr4beRdnj5BtaYlDcTajn2XquiTSfLlR4dnh8OpBMpnHKhn74ht4sHmgxdAL0fn+PoRnD2RGQpqENzsi0Jc8R0nxGPyM6DK1qQ282ywc6NbQgnWnoDwnMeMhyWNE1/gicGzROl6yOSRS85VC1oTebNQAdGToBOuv30AT6FCPd4CHUPgYFywaNaEZTpkP0GFrRht5s1jA5bhv6DYHONLTwLEg3JhRI1/6Go1OmGVkdygytbkMv/0vh3zZ0vqHJs0DdhN0RDM279k3TRVD3qDJDq9rQawD6hqEB8z7b0J+vNH8akWYbippQ12DaTKjuUPDcEudWn6FVbeh1AC2GToDONfTn0+l0ZpPVIYZGQDOZRtLV0foqNLSiDb0OoB9m6NM50PwJDTDj8ve4OHgx0fJoUVkdbd93mgytc0Nvlwz0ow3NgmiGSEvMyHQTw0xLt6Fd27Z9C5TVGFrhht6u0dBInqG//Gbn7FXcBqIo/DYhjbcyAYNxEQxm60AKlwG7TRHS+C3cJMZGIALG6yakMkmKpFcgD5DOCBmB8gZpcuZofGc0ign+WXtk+dwZ7T7Ax8fRaHYBtGZ5yeA34KwVrR1NmrEwtqKJMgVNoEFyVQx969Ce5NSGJtDiZ4SSJtPL2XImMcUjxBKisSloMTT2h2oYumIdukbn0G+Khn59gKHJNFh2Akk7SCuWCXVInOloHfyicOby39DV6tC1+LAihnaA3tvQxJlET5YCNfwMoJ2wc5BmwBzq10IFNQYUk+3KGLpiHfr6gTaGPq5D/9CGxlpiFT1NRVs8h2RaDE2mJUAZzwp06Fbjvl21Dn39QJ/K0D8UzMhSjVriaKdEhxhADaZZozGkWRtaoMby29BpPAQE/XWctm8d+uJ5NEPnWINjbJNZCWpwHGpFS+2wDM2Hr4ZW6cZPJP1N6o2hb/ehT2ZowXmZj2nR5R6tJR2KobWjRdFfuP01dKf/pJBh0m3cOvQ+Obuh970P/X0ikdZhMssdHQjPGCwEdibUWIxRtM+Ghp/dxF0fDH3r0GJoB+d9/2LFAL3kXrqZBSQ6sJCmn1U+hErRYV6kGb8NnRFhJ0839/536Ov/9C2GdoB+fbihpXUUOjR4Zgh1mA9CqFWJDu2jDs8NPdLVOUuGNtL95OKGRoeu+afvExta4iiaOC8Js7RokCyGxvBhE+2tobuK3lGb59DNTd/u0qnnHfr6P32f3tDG0W5INAWtM9OG1qUDjo4EaI8Nzcax2X5YaWdDq3dktw599uw2NHE+jaHdIh2oCbBniHQOLAavhIpq4Gzir6EJdEag86SxQXrTabc97dAvX9YAaDG0y/Oehv45mYxdQXMzAR8zLE4QhLMgDEKddxEdjYUx8fUuhw20IL0WotdNBbSHHfplLYB2DP32UEP/mkhWXJPFZKmWZWg+Vdg6sCQfOKA5imjpyGtD98gtgTaxikd/NFyv43iT9bwydD2ALhkaa29DE+gxR7IE0RPgvLCZRpSlmZCKNlizdUQfIv8N3SK798bQTCcBFU6Gcdb0pkPXA+gTnXLQ0GMO9MzQ0StMDnUgTCMzDpG2HI0VqXzg+GvovHOsC4ZuY6U8znMzTMi0D4auw0th6ZTjKENL6VittKBBc9nQOqFBGi1aYEb4I/LW0O2nukU7l+16VHcpT+Osq4D24Bz6+oE+maHH9DNHKxpEA2tdOxYBJU2olZwDLIxJhKWGJZpk+2voVsyq3LFu+LdJdGdD1MsZbnoXN3Q9gBZDOzwPBnsaeqyJpp+1o1XhANEaaRANnoVp1aILUJNmhjx7bOjWPbmNXUMjvSRJNvF62HeRHmXd2zm0lbOechDo/Qz9AjCLo1dSPFYgGkjjkTMd2HEVTUnbQH/21dD6NkdW7NAmON3oplkSF7COmzdDS85iaPJ8iKEJtIp5LyTNNLQERAdA2oW6yLQtaU//gz8TsxynjqHduxzdZG3f9chuHVpyFkO/NRns1aERokyodY9eYSE5yhwGtcMyNIeZhhHH4jny19D6RvTo3jG04CxJY6tWr595YOiXVw20GFqAPuSUAxFDj1d5JtzLBV8M7biGxtoiXYzPhm6lOaG7DS1fCnuJ9c0luWCH5skdctXXR11DSw43NPaKjs6ZXsDSDM86OLahiTRxDqtk6FYrIaGJbeid96GTkZH08wve5agB0DsMPTjM0KRasWxrekFF20wzAjVQxtZIF/LZS0MTabdG7zY00zPneU+Ti3Ro4FwLoHcaerCvoSUrtYkyaVaPQgIsKyHWlDizR08FZ88N3WizSQzbDtHl+9DMs9hI+u4Chs5xvn6gd3Xo14ODDQ09q71leoHBMjhjm0zVhII0cA6rYuhWSutu/mNoyd1aJJ09YoeuOdCuobEPOIdG3o8lBmmGOJuwc/AhUTRPifS0Qobe1mhdOnZ3aKaLL4Wmd2wuYOh6XE4qGRqP15g9DS1AS8Dx2BD9L6jnmua8dEzVwqagp5UwtK7R65KiO2laMjTvctyNzFcWBfTtPnQ1DL3Kx4pTojnIHINnOA9V8SDUTITx39ANfRqdEWcBOvmDxJ2yoZFmbI6kb/ehH9fQb7WhXxPnwbGGLjK9cJGek2ZCTUmDYt08iDI17b+hG1n+97IFQ3f+qKzLhmbk1vTortm83Yd+bEOLn48xNHGW0iFxTzq+bnFWm016KoKuiKEbjbUo2lSOlETHZUMzd0N5NbwZ+iynHIcZ+uN4/B5jUsR5YUt6TqS1ookzBivkRDnTlTB0o8lC7HTojESnZUMzPakdm0t06JfXDbRt6LeHG5pAF3gWQz+4peOr2gFGvxkS7OmcSOtUx9C5ou8JtMmGinYNLURnfXk1PLOhsa8caKtDI0cZ+r0QLbFbNIc04wFHB/P5PMAgiudQeI74rIih8xaduMd2CujENbQA3bsbyavh+To07FwDoMXQAPo4Q79/P9YjNGOw4OiHBTao/roSR8+x1AR6sKbEGon0qoKhu+TSMXQnAdC/dxq613tuiD7nXQ6s+nToYw2tWRZPP5BocMyQ5q8LDhsHeSbHKlNKmjxbqYKh887RLAANjgH0/W5Dg+jhluhTd+iaf1jZGnpg43yIob8RaAdpUq2QzgUNUwNqXTtAdEHRU2VojGnRlejQjYSvd46hoeiss9vQyLMt0fGZvhTW7JRj4Ah6P0MTaMTqHJ+0pR8eFNGE+WGBRUcjizl+gmcJaRago8oYOuWhcun6aIK909Ak+pWcdZy0Q9cc6JKhifMhhibOmmduGjpnmoYm01rRGB5zKKL1KQd7hxF0VTp0o0HVps7tJGa3oUn0ekv07Rz6EQz9xvCMfYyhOVgP1LQYGkiTaEhahU9Q/DXQhsZPKrpSHfove2fM2sgRhuF/I4TxCReKQ0CoMAfGbRIOoiJxXOiKuHEgKXRFmkBKkyqQPhBOp8ggHIQNMUY6myO2f4A7ISQMyo/IO+/MfLNr2TlrduXcrOf9ZjYQSPfw5N2ZPd0ntnOMb3Vo7PsNfZvoyaOcQz+tr+0SQGcxNEOuDzTOaiRHkDV4pqJV4SDTZJk0E2hsm0AMvVlCGrWFDM1UqyO5M3wUQyOF/8HzOwyNeBj6b0EZD0e0AP0nBycdR78nDK2qdLJF45HIZRCGNtffyQ79MENXE0QD6Gr8luNDMjSBZqRzHHCSjj4C2GDaGJpIO6K1psMztOkcixqaRNuzjsbaI3for4sKtDvlyNHQ/CdxBssHukabAdJUNAOYQTOYlgRp6C1Ktr5wh64ia2X77d36Y3VohfPXhQVabgqRfAxNnLmMoMXQf1LScDQjSB8lceYOzNCmc3gYGoHemdHjGfrF1wUGWm4KczJ08rUQz58Pfv+FjibPeh2pccFBR7JHc4I65Xj27B92Dp8OjUzt4d2Sv+UwN4X4J4H+vqBAS4fOaugTUPyH0GxrB4g+ANTpHg2mJU7Qjun2r1htVTkCMXStpTrHlpeh3Yvh2iP8mUJsAv3pp0UF+o4O/Z2XoU/IswSCRn5ROEPQB6jSwjNwTitaTVLRwRlavxZOfDo0st6S0rHkbzkYfm9XXKDF0I5nT0P/AZ6x0jnQhsaioyW3kE6kjRqtBd0OxtDP+PO6zbqfoeXFcLpkQwvORQY6P0P/QZyxLcugGdsgfZCkmTzPGbrNh3J0WDeFKmMq2sPQzMSeRi/zWw7m6XwPPdehXy5saNDMcUTT0Az8nII61aHJdEcM3cbGhGRo/YVSY8vD0My4xDQ3cjD0Ewd63tCG55cLGxq57WjOAalO86wG6QjRZFkvGNoQHcg5tJzcTX0MzZj7lfGyv4cufuW4z9AvPQwNntVgEWdDNZE2fuZDWjRw1lS3MVrRbT2BnXJYRZerHoZmZiWd2bJPObCLDXRuhr5SftaTVHTS0IJzRy4MO1zK0B1M257bhWdo3aLHvoZ2pWN5HfppXH2LoQVnP0MT6DTTB3xgiDM3me6RaQxYZsDyUacDnmWC69A46GjQsJ6GXt9oSOlY8m/bvSj21bcYWnD2NPS14VmI7hpDY0TRxtE90Py7qhxgWo8qHCRa5Tes4Aytz6LLN+R5cUPLheFk6R262FffYmjB2dPQ19bQSOrN0EQM3bO1A0NH8/kbDI24Cq1WQIbG59A7juj6woauru9I6VjuKUfBr77F0AQaK5OhSTMWDzu6HCpakMZQ0Nis0oAaOeq0O6ZFmwDn0AyN90KV1pb+mmNRQ6/PRNFL6tBfPQmgczc0F4LGwXTBszN0T42uHUc97WbbOaholA0OXwtDMrRS9ES3YHkrXMzQ6/a9MBr6wzO0GmNolI7uQSJgGUj3XOugotsdSBoDlrEVzuEZulbTPfjGz9DyXjhZUof+SnAuMtDO0Eh2Qzuqu+gcCAWNxVhDo3NwA2eMBCirrYkOrEPr34du8qTDr0Ovr5sb8J1lGfpJAC2GFqCzGlosrQ2tmU5GGZrT67E/S2BoLJdQ/sSKCYCeEWg/QyM7ougMHfqJA52nof9KI90lz7Q0JoWzDSxNpo+IM4p0kucADT1l5fDs0KLoUTR0bjeF/ob+DBQ7pLsYPBEqOlU58OxZQ2P97gytVuKcI7gOXVMtuFH3NrT9MnrNv0NHQ4uhGX9DfyY4C9RsHWSajnZQW54FZyEagwodqqFncsrh06GRqbkujIbO09DE2cfQfwnSXQ55Zg6wFNFvMT2M7hvsHL0kzxyb8Aw91hXay9BEulJiGpXYoXMzNHHGWtjQwFkjPbRUd1mj2aQt0QwNrXHmxiSZDrdDN/QfLfTr0MyoxEzJczR05nNoiYeh//orVTm6dkyAsxgay4Q0p2tHuIau6sbhb2h5LWzGDp3vTeGChmbAs2JaLUd1OgdO0XLWQT0Xw9Cs0P/4fsuh0ywxs2jo/9PQDGgWmIdqzxu6+xZLSVpaNJYQLYbuBGpoVaFb9SyGltfCUezQH4ChgTMfGDI9b+i3OuAZQz+LpeXkLlxDt+RPYXl3aLn/Xo2Gzmho4JyPofEkzvQzVgLnLkb3aJeOw/mUu33abp+GaOiqPePwN7RT9G7s0NkMDYgzG1pCQQ8ZgPxHWtFMrzcH9amhmi36NEBD84WuWvPv0EylbBQdDZ3J0OAZk9nQVLTpHJzuMIEzDc3pvU3hLDltK0OfKkkHZ+gxf/c8o6HlK9IxgY4d2r9D52hoIj2UdBMB06ZFv723d9DQ2CEZGn9pkKrQI+Ls26GZNa3o8lo0dJ6G3t5e1NB/W5jF0JwuiRaaraLfUtKO5sPOae+0w2lzguvQdd6IZDM0s2sVDaBjh85oaEka6B8XAXqoFoA2AdK3BE2aUTsSsSX6lGHlCMvQ5lplRpy9OzQzsz/qHw2dl6G3sbIYesg9dIbGiKEN0uBZkD5VNOPhFB2gocnhZnZDy/33OHboD8PQCHG+x9CUtMmcomnnU/sMydD6kON59g4t99+NSjR0NkO7eBoaSzIUqMXQ5BnDOEkfwtAY1OiOczQtHZSheYC8lYeh7d8DPo0d2t/QaZoX/R6aQP9NpF2PRhKeftPlJA461JYcAut02oEZmkDXs3ZoAm0U3YqGzmLorDeFJwB6vnaIom2Lto4Wpg/V8JSD4xQdoqFruRh6o2UUHTt0VkP7n0MTaK3o1xjgPC9oDnF2SIuibzkaQIdn6LLgbIiuehl6w9x/N6OhMxpaCrSfoV3rINLpV0MGRCdLtDU0WIak4WfFtLwZhmfo1i1Db7YqXoau2J/oiB06s6HJ87afoRExNB7D1w5nY+k3imi1TQ4BNEKoibOzdIiGbqYLx9aoNPIy9Ia5/96Jhs5uaL4TZjQ0kzb0GziaxQMRnMXQrNEpnIM0dCNtaIXlpoehoeiyUXTs0N6G/i5zhwbOekPPGGSIMTxj6Ge2DowhGkxT0AyQVr2jE6yh06ccMyLpY2hR9CgaOquh5VsOT0NjQDNiaseQSJNpGJqxhePYeNrSjDkM29Cpm8KtFl/sPAyNrBlFr1igY4f26tDb+rGN+BiaeW2YnjM0kDZAJx2NYUTRJqHdFBLom4Sh8S9UZh6GRnZLzK7gnKehXxQXaDG06xzE2cvQEtqZM3RMS+nAM6now4SiAzb0jPQ6Q9+UdEYehkZmJaa8WtHJsUO/eFFgoFOGFpyzGJq9Aygz+AeZfmMmaehjEE0/C9I9GhqPy+AMXXu2ycYshqagmRsPQyOjEvNNrh2aKTTQztAO6IyGfo1h4cDWGSaLhzH0GxF0UtFIqIauldPfQ7cs0GMvQ+P+W2eSb4dmnk6HzmDoa9JsocZCDNNW0QyPovEk0mrIsiB9eXkIQV+GZ+hno9SfWKmUbMpVH0NLi27mbuhCvxSmDb1NoLE9TjkItAtplgwN1EI1kaaiWTtcwDNI1hOUofXd9xYNzcYhmXoZWg46pgQ6nkN7GppYexr6JOHnOwwNmF1YotUcHh+nFE2UsUIztPzauQZ65IBu8HJlIUMzU/OfT+M5dKZz6CyGPnFEY9KOhp7F0aD5zbGNU/QpHY3acRmgoW9YmC3QDcLYGrMGexgaqTRLOjv7a/Ec2tfQbB3ZDH2BTUM7mPmEogfDhKC1opFU41AdWhMdkqGh6Dp1WtdAV01dIOWt5x6GRiZO8uPVaGhvQzOehsYI0hhGagckncixSNoh7Qwd3CnHs9pIrlZ47U0317WiPQyNVHZLkvLuSuzQWU45Xi5s6BNEG5r7AhQL0sPBa+CMlerRYmiOoRljE5ahaxM6WQM90RT+U9+gYKsehq5sVNZ2BGg2j2hoz3Norw5NoDEa59uGfoMB0gNHsyj6VukwRAfXoWtbZcWuOueQQ47N+ha9PfYzdKUyLqeRjh3ax9AE2svQVDQfMPSFM/TAQj1II01Jpw19GKyha7peEOixrr74RKlCVW94GRpZmzbTSEdDP6KhifSFhDgL0oPhYMCXQuF5vkMTads6QjN07R/7WmhP7UYAWit65GdoZmWcZPrVCoCOHfrRDH1yApA5ULTagrQYOq1oRqjuK5xDNXRtpBUtF99jAA1Fq8x8DC1Z3XNtury3uroWDf0wQ29LshgaTDPEGZuGZoceAGcN9XkKZr4Z9lk7SHKYhjaKvgHQ5pADQBtFN597GDqB9NrKuCW9YyV26IcZ2uHsb2iEgtYRnLEwyOuBE7SKofm4r2juYy4xgRpaK7p1U98sMTMCvd4g3P6GJtDIvtV0Yy8a+r2GJs64I/Q19GfW0CcXGIczH0QaPGMZQ9PRalwgaPLcD9bQtWpZVw1zJVIF0MiMmG9mMzSzsitNOnbo9xp629vQArQwTUMzxPlMDI2weJxjlKQty1j0M3BG7egHauga2HUZ2R+aGfOEOoOh3cX3xy0j6f1o6AcZGslmaOqZm0kZmo4mzxrp4/NjLKZvNE2k+6Eamkd3kokF+nmTBSSroZlVK+ndldihl21oCVkWpK2iybNR9Ll0DkGaA54D7tAposubCmimqrza3MxsaGbfSLr5EXiOhn6goT/3NrRYWqJwxibPxFl3aORYjcpPGKXnvg4kHaihE0TP6gSauWmoau1vaEF6Vc2urR2xQ7/f0C81z5/7GzqN8xnm4uxMt2jEMg1Jc8g008dSsZ2jH6Sha7UbIt2cpX6ssVJWiOdg6FWs1f2G/n/At9HQDzT05wsZmhGeBWpnaI6u0AiRPh+ck+eUodUcBm5oZH02q97+Od0ZoGlVMxqaYdF4ZYt07ND/YWgK2sfQBPr65OoeR4NmzuBsYHIOolk67GshccaWhGvo9O9DSyotlI5cDE2k9xqmSEdDL83QVxg800ifqdfCM4QH0e7kDiyzczDHP/2kDU1FW577oRr67t+HXm+idORkaJE0inTs0PcbWnD2MjSGOL8DzuD53XzpoKGlcxBlDjsHkHZ+xi6UodWf+q6OUDryMrRIurwXDX2voQVoH0NTz1xgGgOi31HRGBUYGkRL2KGpaPLMYYnWii6eoYHyuDTOzdAi6fJ+NPS8oYlzJkNfXV2xReOfJ++A9LuLE8Wz2gAai0nUaBKtHX1OQ/fVBtHEWSVgQ9/zt2BNS9O8DM18q1BsfBwNPWdo9GdMFkNfqbBHI1rQdPSZHnkrlABma2ggrQyNRZ4N0oUzNDIpT/IyNLPH70Q+ioa+19DepxzXwBmKtoZm7ZCDDpsBxvgZY/ITaKajVfoO6ZANfVeHZmaNWX6GBsG8Vd+Jhp4ztBoXP0Nf09GGaQSW5pwpR1PQaUNjWaYZBXXBDQ2iW5Vshl7Z/3b31U6z2WqAQ5Pdhxr6iy+KDbQYeju7oa+v1DmHaR4AGgtJGTpdo88lx7S08jMHLBe0Q5Po5roG2sPQq9NXrdJd+eH9hibORQfaGvq2oD0MDaAV0cTZ8gw9M2fvIGmhWQSNoZ7V0oZGbOUoqqGfb1ZGVQK9uYChSfP+Kzp5PuWdfWvoJw60NfRtnD0NfZUIkMZoqknzvKFdrKG1ngtg6P/8m2Q3xuuLG3rvPppbu+okOho6beg0z36GRq4SnQNIW0kDY2x5K/ySQ0PrHJNoIk2oi21osDypLNqhR3d4ufnqmz2omXmgoYv+Uvgve2fM3EYRxXFkIFTA8CU0luwANsE4ISQE22RsDI1tbHyyhknhBpqkSJHMQAETU0EDRRoaPkFooEgaChgaKio6jWSPR7ZkSR6PJM/E5unp7p3e3q1utXenOyn6nxyS4DiZ4Zcf/3u7eyJDs6GdvqFtR4Odcc6BSCPO3NDIdKegMYjzMBi6S4duF2g1Q1MmuZ4379/54e30aD90F0PjJDoAQxPRlqGtFm23DmQZJ3dZm2dE+lkxNKTXDp0nmLehYoxOfXsZmnDWXinkOHOm/4SXXTrgo906WveF6ybRhPTv+DHohu7WoTE9GvpNS9Gb6dGTk1QNTdE0NHf03/CimDyToQFp7NDr0DqIaMqQTzm0DP3mF6agvxg9OUnN0BR9Q3NH/y0YGpLBb7OtV1vRyPM64ty6OhQ94Ib26NAac+hJawD9w8jQSlOOsAxNsR2Nhs5ms3+1rnVq0bxET48MzefQ7yTpKOHoyUnqhtafclBYi2Y4Gy1HZ/ECnkHQyPN669pZt6Ge/n2nhfMgGxoSrKEhdF94p4uhn/Gl7yDn0CukaBtpW88m0qRo09BtRe+Ykp7YsZAeGVo0NOS+/QhSB9KjlcIADP3wya8PP+GG3vhvY8OEeQtbx5ZJtAFAo6GpREMyDz6cW8gCzOjoCTL0qEM7DM2J3rzNcB6tFEqmHMqG/vbJzIH5OMzc7i8INAoakf5nA64Wz/D6u0200XoZBhANSJs83zjMj+N/nPzh4lwGpxzrOzbS0Dhib2iKYGiKaGj9U9+MaMj2D24demRoLUP/sZdkyc0T0BDb0QD1FhBNgkag20hn54SvsfdGi+gJwjk8Qy+cV8uVSqFQKqWUUpDg3Kzjl5GnUik3ihJDF1OdOVY0NPVoehaYw9DP+NK3jqF/yicd2V1aXlmBFo04Y+3YAJpbjcMSNErawM6RyWSz886dNrkPkehpknQohq4WUj2mBEDbTJswVyullFoqjWINiPYE+pKCoelBYJjNO6M5dACG/vVW0iX5JQAaAzwDzujn1gWCXjNxBkVj5QCgD123jX3U7hzT+BHGlOOonOo9JdHQzTLBrAp1cdGvoSmT95OU+6M5tH9DE888e2RoQBpiQQ2xDG1gWoa+mXTN5nVQNAm6A2gUtG9DH1VSFH1DN7W+SqHo09Cv229TeHs8CaHnzEz2NIcedWjB0D8nJbm0giGct8xYHRpi3RZ+NJ50zyFWDjQ0F3QQhj4vpbSBtgVdTWmmXPNraCIaDxJaqyw9GbrrTWECrsGMnzn0lzKgt5dNoE1FY+GwDN2RTCaTT0qy+R6wHJKhkUTfhq6ktFOoBWDoSSR68jY16fHbgc2hB5bnhA9Df5uU5vUVMxtWTEOvQUDRcAHOAPTFpDQ3AGWUNLyCNDTx7LNDYwfXJzogQ0M6kP4ioDl0IjGQjk7A5cPQvyYpTkVzoLdA0lbpAKTNBm2goGW5PAGZbuGMCc7QR4CNf0M3Ur5SCaRDw4W5s0lEM6T1gR5MRyckHZpwlhka80tSnpscaIS6zbSp6HbeT8pTm5gAQ6OjQdEBGrqSCsDQzZTPHPsyNHUOM2kL6dvac2gO9AA6Gv/ECZmhCWi5ob/no2P+IwtoQhpwJkMT0LtdvsR+29Dw2gnU0OcipOXq+ZF7mo50K9CFcqNedE39uOH4/NKiP0OTojnS4z8EMYdu8TyIkoY/taahnUDP8HHFE5cOjX5GQ5t5zH/NogA0+RlewRla6L5Vl6XvuRtzFGHpWyroSvEii7g7qXYsTFaKQRmakP5iHInWn0NzQw+WpBMqhv68B0P/sifOorsgbbRr9AH/JTdcDA1IA89BGpovD57r7eWoizwXvfdy1Pjv3AiiQ8PLThrfu/DeO4qG7tqhB8/RLZohulMOJ9D8HnH8EREtAo0xIA82+V2gE+gdhBoSoKGZKAu9bk6SjDiKkt12bPsoJ7qgb2iK40zh15tIdDdDf6V0U2g5ekCYTngZmnhWN/QSn1gcEM8rMqD3eYPOOoBGRcMVZIdeEAoHAn2lJ0M7K3RDbbcd83rJ/xwaLzvo5Vsm0b6BRqIHpXMkyNCv+u7QBDSfetxb9jL02jZv0A6g11HR0DiCNPQ5B1rT0AVB0AD0ZZmh7f3Q19j/HYI3NObOOBDdE9DbMqCB54Ho0S2ckWcCWnPKwYFeyvH1by9DL/LRteEAmhQdpKHPAzG0cIOnuh+aib0WbIcmpN/ZhqdEqwD9qQX0YBs6YU3sZIbmOKsbeukSrxBehs5zfrNOoHfggtd0/AzNgS4g0PIOTUCXGdBhGBpzHxZYFKYccqDHEmYGYiCdID9LDM15Vjf0x7xD/NHd0Jf51o3ZrMTQkJ2YG7qgauhy+IbGfLn5tj+gx2yYY79qSP25u6FXezf00usuk7sNmaH5mO8gm5V1aB1DY/praHmH7p+hKbfvKAD9mRxok+gBGN9Rf24zPaZi6O8UDb30iM/hHrK1QgHouSTLh1mZoYHn6/nO1JQMzRchr8zODqOh4SVDWmX7qBxoiM1zvB1N/Rl5VjL0d2qGhhxw63YxtLioks3KOjRYeYHvlPY2tBPooezQhLP+qW850LajY1w7TJotpMfGgjQ05OE4m9w9lhv6Ry7zN7JyQzuAHhlaRFrn1DdGBrRFdOzXwBN4kZ8B6EANvcyL8Yzc0HxRJZ/JSjp0yIauDHCHnlQwtD7QSHTM59FEM/lZxdBTPRh6+Qmf3EkN/YAPRK5m+mZoYTf00bAaOu3X0Eh07NfAkWeb6MANvcyHy9dkhr7Jwc9kQu/QFA50ZXA7tLahEWeVytF5Zxg/pi0/U+FQM/SUUocmoOd5lZDNoXOc3Uz4hqZUBKIR6OEztLxDE87SvRwvPz9mIR3n5RVCmXhWMvRUT4YW1r8fuhv6Kt/28SDThw4t3+B/fuUZ69DeQCPRmERMbw0TwsRuTMXQmN4MvTzDH6Pkbug8JzQTvqE9jmCV3B7eVa3WmwNraERaH+j4O5poxoyZed5paMJZx9Cg6HtsRfuxm6H5UcLxK5l+duiFhUJKPaVyvTl0HfozaNFeQNuOjuWoIwEvYWCHPD8vGpqA1jM05E320x+4GZrDtpvpr6EXjhSJJl7rA2joHp4+uu0KNDk6nlvvhIFdWIaG8PXvWy677YSjhB9lMv3s0AuQSqpnpIemQ3+lBDQSHdtxtDiATlg4B29oCEdp0Qm0sOqd6behIee9Il1qDpihEWl9oDG8RgNBMZI0H9gRz56GnurR0JCf+OTOAfQDbNmUi5lMnzu0HtLVIenQFtCYbkADHzGt0aaenQU6HEML698/iUAL5wAy/Tc05sp5BbFUTnmgDA0dWhXoW3JDW46O0y6lBOlZ8LOXoUnRPRpaWP/eFYDeyvFKQkCH36E50JCj82qlB0cPW4eWAv1CG+iYjqNNoh1+VjT01FSvhubr3+O/caCv8aOEa5EZGpDGHNWrzlTcJiHNFtADYmh5hyacuwBtEj2GRMdru3+CCrQ44MAoTDl6NbS4/v06BzovrnpH06FNnOW77U7OqyLUlSHp0ECyF9AOR8dnczSi7CzQYRkac4tJeKUTaOEo4YNM5IaW77Y7Kad4BsjQ0KF9A42OjtmKIf5tkhRoyAueUw746NHQjvXv+U6ghaOEGYi8Q0dpaExV6BxD0KHvqgEtq9HPRT7qIJ65nwnowKccjvXvfAfQj5IsNzJxNjSE3zPWB8fQhLQm0ER0vGq0sIODYvEcgqExB8LkjoAWFlWMTGw7tJui60PQoZ1AbzuBxkin0RotOmRBE8/hGHpl+dE4m9wR0OJRQiPuhq4OqqGpQ+sCLa/RyFQESBPN0gINecXL0DpTDkB61zG5Q6CFo4SGEfMOLQI9lB1aArR00oGJiGezwotbOBjQTkOv+p1yrKzw9e8DE2jxKKExnIbulHTsOvRXCkBfIKLZNLpT0TEwtEPQckOv+jb0yp4wuUOg+YA6t2YMX4eup3jqcevQSkBfcHN0IuJpdKJ9yQu0xNCEs7ahVwDoP/ibCLWBzvGfNIbR0CLRxwPYoQloSefou6GpcciXCAlobmgC2q+hVxi8OQT6onCU0BiiDm0jXSxxohvxMrQI9F03oJ2KNhPRU0mpQHeZcIRhaOIZcpNvEt1wLKocGsNi6BIaWkp0+WqcOrSaoYlocdIRTYsmovkSoZPnC4EbmpBe3mYTZwD6IT9K+NgwBrZDF4QVRBvoq/BqCkRXaibQBbcn+J9x+mNiaAQ6Tns6UNAuDdpE2uT5gtTQxLNeh4Z8wPB9tLUlHCU0NA29209Dl92BLgsOFhZWagLwhRoCXXR9j5Ua/9S+7+WQAC2bdERYOeDyErSHoae0OzTkt002udsSjhK+bxiqHfotPr3uo6Gbkr0c1RTPCc6h7ZldreIkmhoHexcsCPd5MRZTjlaYop2rK/1tHQkimhfoMcZz0IYmntHRB+wW8MdDYdVb3dDTfDpyuW+GPikI3FpAi6OMwok4gxYcXipeWzzmPYSALvPPPJuZiXwOLVF0lMfA3TdxCIIO0dAQvv49s83vEg1DsUND+N+F3EmfDF0Xm4P8nWQLTcJZRrTwEw0Cuih85tP9eBjaYxjdV0UnrIsLWuDZ3dB8xKHZoRFpvv7tWFRRN/TseJLl4MpbzNDBA30C51gQZ16hu7zXd6FuM41ppLqmRkBT56CUnxbPzvY7DW1HfEsKCgHt39AvXnCWjmgNTSzLBI08uxt6NShD8/VvnnnDUO3QE6hoIeO5vcOuyUmArqa0U6AzhaRoIaVCpSPdj9zO20Afp7TzdHLywPpuugHfAMqn8NXTyoa+KwNaPuno9xlw3qDlgg7H0NShIXkZz9trhrqhIRP5pEYCBrqOQJtMN1L+UiSgIWU/QE82GuVUodE4TTeQ5NY/Kgi0vqE50THYo4Q4ewg6XENjnsgA2zcM5Q6NRL+Xixxo4BmAtnJS8sXz8Xwn0LWCD6AhT1Nl+BZIrqQO0+lSgYDWNTQS7VB0NJuUSNCeDVpuaNKzvw5NW5TE5LYMZUPvTGPe2o0Y6Lr95CRMUwtCuiNkQF+qVYIB+mnqOA0fvg0tVzSm74ZGnD0E7W3oKRS0rqEx9C5CPFfXDNUODUibqW1GCHThnJ5tR47WLgol8DMH+tLNRiBAnxZK6XLq1Lehuyo60ecWTWveCoJ+UcHQ3+h3aJpF8+TX1tQNPU1Ev7u/GRHQpSo9rNFG+vLluqaea/Mi0ID0WSUIoI9B0uVD/4ZWatHP9dfQKoJ+sbuhIZqGpuy68PyjItA7ZGhCOh8B0IXqyftWbJxbRDcbJY36vDjvABpz1ij5BvowVUo9PfRvaEhsBh0JvNQErWDob7Q7NGbD4ei9B2u9GFp48/rZ2l4ubKA5zfTAc9HQmHqlZ90XnUCbSN8sNsoFX0BD4Sil/RtapugoHnZHG5NUBB2+oTc2ru2Nd+r55tYaAa22l2NHfK/v6ye1/cPD3b1uuacHNB8ql4FmjMTQmJN6o9L9y4j/uuhmaMr+2TFgrQv001Qj7d/QckX3d9MdCZoZWi5oL0PDS27ob39t5yfMJ0KHJqAhv32wu5e7t5nL7x48BJhlQGeudOZdmkMzRcMPMV4rhXkJ0NePFCN/FywyNLysNJvFuphisVlrb4U+FluHxNCYmXb298+EnLrkEIE+PD1tAX16epA+OD1Mw3d8GtqpaNkJcBnOoe+DHnMTdDdDI83dphyYj80Aze6GdjzBXw40Zp3C5tDM0JLNSd5A48I3fGDkS99znu+CRYbGXJQ9l4POyNa7ju0Yzq3LjJ+lb1/7oV+UKDqSoyuSfdBugvZnaIzNs6xDb6yoA815Xqc5tMTQDGlht13eey/HgtduO3VDs92jDGgTace5LC9Dy3fbsa12su1Jb/s6sfKSp6KJ6PD9TA1aLmgCWqFDryoZeikYQ693EI0872Dp8DL0e6qGJqDlhsb4NDTH2Z3o8qKyoTnOMkOntQwN+VcVaL4vOhJDc0E7G4fGlEMJ6BX/hraXVSZ2/Bt6IVRDX2xdckNjFsXl7UpN09CE9CS8ejf0V0pAK94W6s/t9LdxyAXtaWhEOiJDT3QgrWPobbYXajYcQ1PkT06yJe08l+XX0JMehtYH2rNzJJQfdRf+PjsStJ6hw+/QRPSOfoc+4Us5syEZmgTt0aHR0Y5zWWf6hsaEZ+huilY7Wxj+SRWnoBU69GqUhvbRoedy/FxtyIZW6NB46ttxisWPoSdDNLRc0WP9XS20vrjKENrL0IBzpB0aLq0ODTxfvCfsVp0Nu0OrGBrSEImO3NB376oC7VwtpJWVcKM+hJYbmnCOxNBUOdQ6NAf6w9rutnicYCFKQ9NtYSvHDZ5a2IbWB1p9FB22oeE3UBtCyw0NGJs3ha9F06HRzzSH3s0pR4QZBX19NvIpBwBNmbcSgw4tA1phchf64UJCWnHGITe0SfPqN6vfxGLK4e8AVm72eoRTDg+g+2/o/9k7e9U2oiAKWwGjIlWeIelUyU0gLpYQ4jaNIdidmvQJZosUSnGLzUMY9FJ5AWEIgaQyuM/6eD3sWJrsSHdHc2+4g2VcuTp8nHvmRxcoEvSiFgSt7q0I988tB+1ExzEVPTSG+0FoDw8NRTedh44U9PpdVaXioUnPXoSGoIc7hQrPwUy0IaInukG7YxK06KEfH4XBM+WIJ/T6bVVVyXjoVs5pEVoU9FQQNHIO+zl/TmithZYJTXI+D8HLQyOIjiX0zVl1L+gqIQ+dB6GHcg4oWmC0dZtQdhwCofHHY87hQWhCdCSh17fVfaXkoZMj9A9R0CjFPIcdoGmQQ2uhhZSjp+Zz11mOBinHvoJe/3pfdYKuioeOFDRqO6ENAa220BpCQ9bBMeWIIvT6912n5uKhdxe0IrgDoY3XVvQWeoDQVMF3lqPZx0N/uvn55/asbRhWqOKhnwha0/pWBnfWvW94Dn0KPf0XoUnVfikHEfrsTl9vTqmqtoqH3rexojPRlqtYoDMj9JCFllKOPqBDcPLQQDQmOYRxO7aCRYMcvapOq+Kh9xK0wkTbB3cT5jmkQQ4toYHo4JxyyDuFKJIzH04iORcPLQqaDIdMaCGJPiihhy8mkZ51hJ6HF345dEPXR6Wt79m2Jdm+pIuHFh+FekLLnsO+tYL/rJiFVnloRBzBrVNI96GbLAidjYfuC7oWBK17FXJCk6bd+oRThYcOcwcPzTdWsiB0Rh6aAVohaOFViFLMRBv3CdWERgXXlKN4aGNCyx5aiDmEezNEaBtF60OOthQ5tN8sR+ehm1n6hM7SQ0PQCy2hre+Qyn1C/STHYKcwuKYc3bdg5UHoDD30AiUTWh64O0jMMcFnp5BjK6Hn9CgMRGifWY6MUo4sPfQCko4itKnh4OtXKFnQMqHbD+t8O6ccTRtz5EDoDD30QOt7YPVbJLTxSY5nuxK6NzsavDw0FF1yaAtC17ocWjkSbTtux/cJeWqnJzQsB1UIJeX4rzw0E3TdltxYUQXRdpLGkUaB0EIMPZBygNCusxy44J8DofPx0DXns57QB75wB0XHE5oJOuDjurGClKN4aBNCw0FHE5okbfYoVBP6WMqh52nk0PexHRxHyaHNPPRIhIac8eNI6Kki5ZgH11kO2Ojioc08dK3w0EKr8FApRzyh+3x2yqF5YyWLlCNLD12LglYPc0ysW4XxhGaGw5HQ1FgpObQVoesRCQ09J07oAMvhfJejOcki5cjHQy+ZoBexhOYpxyRZQj/89p2HbrprjcVDWxG6TTkS99AAdGTK0SO08zw0Qo48CJ2Ph17yU43RKQdvqySYcnSWIwFCf8yqU5iLh14KhI7tFI5PaLLQY3volZOHpo2VJn1C5+OhNzuFX1PtFBKiYzqFPLYLELTzfehZFoTOxUPzGBqCjie0UecbgI6ctmMFCx1WrjuFxUPHEloW9EU8oa1NdPQ8NIoT+tr3PnSZ5TAm9KVEaO3GCk1yTJIn9ByI9tspLDn02IR+zQgtCxql2Fg59LidvCSrJ3Rw3CksOXQ8oWVBL0Yi9JHVjegJu5wkL8lqCA04d71v353CWQaEzsZDI7VjOfQHkdDHOxHa0kPHE5q/Ch1TjpPioUcl9MVTQi++XUbf5XgIjA0vJ8lBtILQoa9n1LXjTmEmncJsPPQVn4ZuSxC0JuQgQtsdPBdiDvVtOyZo8hw+hAagi4celdDLq42U47MgaH0MTZNJZoTWxxwvNYQO3/2+67spHjqC0BpBv4ogNAH6ENdHdSZ6k9CrTUFfu92HLjuF4xIaeuYLK182BP1cDjk8Ttsd7RRzhA1CrwIXNDxHuQ/9l72z2W0aiKLwjh/xo1IEZREqJFghFhQJ8QoIiQZLXWXZRXFUNqCsgpQsHCkjJSvWlualeCAup+7g6XHEdclMbDTXTp7g06fj45nxf5GhZ5OJAujHrQ9OIppjFdG83m5Ahi6L2lq7immzw9V2y7SWY2uGnjDQ83MGuiuHj7bc9w1FD8jQZemVdphyN2s5+mPofmToWRPQXwjoh9oIHTxAO0XrV3OwoQv7h2dHtNnhyUkpQ2/L0KsJZeif8+8M9MYIzSVH8NDh1RyKEH3ALYctvNIOU+7sfOhlOpdjW4aeTRjo4fyMgb7G2aOheAbSbUL0kwZDl+7d958xu1jL0acdKz3I0JMGoOfzEQG9D6C1ERoT6rVKq3eFIPoZr+WwlaKL+pS7W8uxTBl6K4aeMdAi6BcM9C31e8JAiubiTh+i75OhAbQfOUq5TdpT2PMMDZzrA0GfE9CH14jQcoWatiG6IEMX1nLkKMv4azlSht6moVcMtDwSzk8J6DvXiNCBBjjrm2goekCGLqBo4Cx/ztE2tRx9ztCXgaNGtSQOidAE9ENKHIoIHTtEb84cB7we2lp7xdAlngvjnw+deuitGXoCoPGHmQnQkji+MdB7XTiTo4Y0HK1fzvGM10OXULRf28mF0BGz5ejV6aMdz9AQ9AXTwBmGFkF/Z6DvgueIX8DSZw5ezsGKvs+GLi4UXVyZ0u7ifOh+nD7a9QwtPLv5jTN+kqDnIwL6nkLQgb+AxVV0m5eFA96xYqHoQsYzdCmhI/r50H05fbTTGXpWx3mFW0YEfc5AI0JrOo4ohgbO8q/vOW4+4T2FBYiu44x/EB33fOh0Lsc2DP22zrPgDJ4h6DMGeh8873jDNxta33M8ZUOLok1RkKFlsqgtB6YnO1Y6nKFrPNcqDhE0Hgl9oNFCazqOwEtHuejQK/qId32X1tgCcwSaMSWIjriWo0enj3Y6QwvHTDQEfToiQz9mQTd3HLEM7Rd3GkUfsKELa0zJhpaxacdK3zL0qkZzzdBzCJqA3mslaIWfAx6gBKBZ0U/J0KJoY4yfoctqTLQeeonA0Y+vYHU4Q688PTukh0jQBPQheG7RcbCfQyGtr6IHvqExArStG9qNNWktR58y9Go8aTL0uzkqDgL6YfsSmjqOMDjrq+iq5/CAhqJLJ2gBWm6MtXnIDM07VpYpQ/+DoWfjMRsagWM4nzLQo9vKEjp4Zcc7C1WKxtw/8g2NsUJ0o6GF6PSt775k6NXYA9oLHF9Gl6N+JORzoSOFaLn0inaPhd4URqYStGdoEB1lLUdaD/0Phq54JqBXCByo7BqA3u/IiUnEdDtFP60MTYq2Fc6eoWVMvB0ry56c4N/FDD0ZA2i5/dZuNhSgzxqAvqcQNJ1pF9rR/Dmsvyt6QIaWMSAa4xkaREfooTHoOJadN3QHM/Tbt2M3daDB8xCBg4DeayvooChziNYrmgyN0JGbvCwaDW1AdJxvrKQMfS1Dv7yEWS4/QwvOw6+jBqDvaAUd550KH3OnV/QBDM2hIzcgmoAG0SEyNO9Y6cWbwu5laPDcaGjxMxoOBnpf30FjIvIsv1aKfsSGlhGgcwOeCWiZRZyW482yF4buWIZe1Wgeey0HeD4d1aetoGP6mQ29WdEYp2gG+uRIgAbRHs4AGkQHX8vRmxP8u5ahV6TnaqTgkPkyJaBbCTpKC81Et+qim4A+KXIQzUBXRKcdK93M0A5mMvRsKHM+9YGmDvqGQtAxcGZH6xX9pAnokzKXsUVZUOTA5MfbztC8Y6UXX5LtVIYWPa/lqhnaIQ2ev02bgD68rVlmJxPxnQr3HPpFd88HDLSMvSB6A9Amfx92x0p/viTbnQw9XjuYHdF1nr9OG4HeA896QesNHX9dNOZpI9AnJpfhh0I3i3BrOWDoZdpT2MbQ4HntG9rNCg+EZww0ngiVgtZXdnFTNBN9wEA7oq0fok1tsuOAO1bSWg6loRlnBnr2zvFMQB/eBc9tDuMQmuMS3VbRzx80AY2qI8ssPxSCZrnzRZAM7XaspLUcSkPLrGUQOWpE+34+nTLQ9I5QI+iYNANnRRfNoYOBBtFZlhkGupocRG/J0LTAvy9vCruQoV8B56tEs58Z6Mf6Cjr6WxU2tL6MZqAxJgPRDHRmcvmJwY9DZGggndZyaA0tOGPGwJl5FqC/gmcC2jUcHDi6ImhHtP6rWNx0nBDRZOjcAGhIOkDLkb5TqDW047mStGN6Ihd4FqC/gWcGerR/jYYjDtLMtFbRmPsPGGiMFaA/5ZaeCXMoWq4sOw7SQwvSaU+hxtA1mIGzL2gcn3Q+xTDQe20bji4YWhOjb/ox+sQn+tOnnPwMohcXRC8+Buih36QMrTH02o1fckygaI9nBvrhxo2xJOg4L1X0x0Ur9hcS0NXgqMbsqqCryJEtzEKQfv9h2z20aLoXbwp3m6E9mnHh75Jo8CzrNzYAfaeB591vJFQ4WtV03BxsAPpzgdN0qYWWWxR9gfRicbzlHvpN6qH/aujX6/UPudjQ1azA8/fpBqDpgVCxhkN+uze0MkY/H3hAE9HGixwwdFbhnC9kkDvS+dC/2Du31riqMAx7AE0wSpKGxlpP1btaYz2k8VyN8RRMVLRY1Ij0ItZDWxIEqQVLMQ0FSwIhuQjISOkvaG9609zkn4h/xHe9s/Jlf3vNl/myJ5Psmcy71kwRvLDw+PDON2vt2R1DE2fwbAiaiv5rBFk8M20A/aT9LDurQe8pzvYVcPuDYQr092F9/yKJPps1NHkWpLGQ8R18chJ2izx9dE86tMZZMx3zR/Dz5TPTBtC/g2e3oPe8cpBpY9JhT6OFaC1oEP3l2fD00c+zMHPIAZqFZ2QyjDk6v/W9C4YGzNhYKc+xQvPpo7PT0wbQv6sBR4knHMYhJV+NfkIDTUGD6O9B9D8A+qO5axLyHN5RNxTS++7JSbvdoYnzEmlWlQMRnlGfkcVfpg2gwbPPzxR0aYg2HF2faG1oEo0iDaIpaeKM9Xmw81m85gLODKv0Dkw5OncKayEdsxQClGUzx4VmvPFZBjOoGxbQimdXgSZOexv967I+Rz+dBZp6DobG/uGHL/lsuzkhGm9hEg05Y6dIny5u6NZ6+uiudmjBeUlgTiVNPY/8DJYNoGUAzQjPjgn0HjJNorWiXY7+0jA08vdHIWc3KkcwNGFWPCOTQLrxJye1xtNHQfQuGnpoSUKcNc0UdNQzPg0aQLNvmIIut5+tGr0l0X0EWmgWQyNffg6gJz+LRM/xMF5oHSqTvBT+yenGnpzUuVOocUYUznHlJ3fX8WkwBJ8GTaCfBM8FBhx7L2i7RttEc9ahDP09DR3eQ6qPAgt1Y+NrQi4VAC1IF35yUqv8CtbudeglnWRoF+tG8PPipWkb6Dh/dvgZKRPNUqMd02hN9OM8DF2d2FHTwdAxfwagIemzPD6KMfS1WDqEZmxBuviUo3V+BavZHVpwruCVGlpCnnHUn58GbaAf7tnCz6ag97xwFK/RJFpVaCx6OubzSeSjz3FyFH1DGrQ2dAy6dNEnJ3XuFDJDzOhSpSJE6w69lJ1C8+7KCIZ1NtAPdSk/+74hLI2h7xWm3aMOEv3soJpzREOLpFmSPwpyZvKGnsQWqMe/6DwfujFDj4JkZEmQtjo0cR6ehZ5NoL8++GBL+5k0+x2tiZaIoSX/AOiJyTnCjPdc4djMOP690Dw6ZzkKGZqpkGamYndo4ozMsD2bQHNc5/Zz6QStmfaPOvirnPQzUBZDq1ybQID0WeJMRaeCJs5AH81j209O6pzlEJohZ+wczrpGx7ax+Av1bAI9QJy36ecSzJ81z/5THZpo09BM31xEOlc5xNBCNDw9PoHmsb0bK61i6GZ26IoENGug9VGO49Xy/POZM2emz5hAT/fW7BvWgKOUNKdI+x39tNGhkQvh9U9w7/hHem6nDT0uQId7h6fdU47OczlGT1RixNBIJWfoofiBkG1j9kyIbWiO61I/myc4SjaCTp8Ods92Hf3EEdvQF7DROwKoxNk09HjkmUhD094bK/v7LEclj3NEWqL1zPJMnm1DP9Tj8nPJjtjVYXqbjn52MJ6H/j4aWiN94ULf3DgykTO0UjQ2VzWfgGnfjZV9fJajUlngVkhzJTzjhaP+LM+MaejpAw8W9HOJecZ2OVq+YUHtwIdCAE1Da5j5BqSJ6mQyhc7yPIGFTaCBNJju/Na3aejKAkKaF3I4qwxFpI+FDKM8M6ahH0bd8Pi5NHcIfUh7HK0lze9YcBraMDReqNIB1AkZ2tmGFqLB9Klv6t1Y2Y/P5ViophJ2WqErukAjx4nz7CUTZwZ67hKcfX4uyxHoOkRv39GYSD+6laERWhqMjouhtaODnAVn7A2kT4Np+8ZKyzzBf+c69IJEGXpJfyiURJxHxM4m0jyMRJ69fi7BHULnpVm/o6V14PgdSrRhaOYHIB0Yjc2DhhZBc49jC9HyBA8wbU45XgLV+6lDLzCWobHyrcOFM3OwW9dne/6s/cxBQlkFzf8qj6PTj4aoHYMB6NTQeJcI0qmhmTtVnIXn5Xg/HJ42bqzsnw69sHBjQacSDS2JMFe0nRd/CWXjkom06FnXZ/v7Qaak36fUdrTdo22ikUM1OzR5VkgjkzyNlxhaP6VUP5Nm6ht4On+Wo3WenFS0QzOAGYtvTkPTzserOF8SmC1Dy7BOePb6mUCXVc+i6EKOBtP9R/I0U88p0rj1PaE6B5YE9Tlj6OUvwmYo6mzlINNt36FvMMAZL4WzcrN06BhexSLOCAVtIo1h3Tb9XNovvG2mEfPsnVmkMZIOF1YsQwvSc4CTSAvOuSFHomgwPV+9rQVRR6Ip6LaeQ4+NRZg3FrYhaOEZW3CeIc71DP1wv+i5kJ9LLWjP2Tt7fIc88XjaobWif8Lum2ORGM8QPVHT0OSZhp6HoAH1PJjGp8TvvgLPbf5cjhuZCM8q2tCj+CODM74VlEDQVod+EkeRjPGGqz+3gKGR3Dcs/oE08nSfaWhh+qefLlwbp6bHs3PovKEVzngFmgPTUwigjnPo1vgVLF+HZiLMNzXNWArmuHSHDjkesvgzSa5raMyerfps+rkMj7Br+FyHv0hjJm11aDF0QBqaDrUY1WOCPCOTYmjheVkbmkwHoJlg6tYw9DY69M2QG1jbMfSJqqUh5yHKmV2jvqEP9ht6Bs9tMN9Ix3eWo+0izfQPKkmnhmao6cAnqgcqR2LoyDQzzzd0aCp6SohG0KmfawFDOzr02zdjFMxGh9Z+ZpZ4FUvkXNfQD2FWV7A+E+dWqM/Jk3a9jtaSxhG8WDdqd+joaGqalH4yPjGRVGjKWQyNBZb1FXEJVF1qQ9ft0AKzII2tmd5qZkc5h0DOwc71DM3yjLZRrD4T55apz3aP9hdp9I5DFyxBA2iVa7z2jeoBS1sdmm/4l5ShT+l8EwpIaQ29RYdeR+rhjGSQrgjTeTn/ggjOpqGxDnSnerbrc9nvpzhLB4kuKulHBqVGm4YWTQfponpUBa14xg4408/YdPRUVdGK5m82sX755dIZunaHXt/MzfXtGhpLMhrlTJw9hmZ53n59LulZ/m20Dseww5A0R3guQzPXxqcQeFohDT+DZ+IshuaUwwZauH7r5VIZWnfotRCNM1+2obmxtKFD+BiDY5AzcfYYGuXZoWd7vMG3VirQukmbjrZrByWNHEKVtgytsL54EZ8QPwmQTn0hMBPnWDpkxoE9JZ8KFdCbSM9v7FNvfPtWKQy9STRAJszk2Yf0Qs7Qcn4UCfcKhWafoVGei+m5BcfP9X6dc3uSZpU+4jD0Rb4Add84GM0yzcYRQz+LoRXQoJmK1kjPx+AfgO8eG/o2sqbiNjTVrEfR1DNoRhTN4NkwtMZZ9Fy/PpflJwh3hGbp0f4irSWtkbYNTaRDfro9HoCcOr0h6Zh5rvi1SqzQ2EI0IoqeV0TzXXLyJFjeJUMztyVrG4swczk6dCLoaOkKL8ke1TTbhpayAZw9em7R088uQ2MbRdohaaTriSM+QxPp4Om7FC4KtTL0pqAD1PPK0CFK0Cfxiiuf5eofgd6mGXolhBivCM6kORG0iTO3MK1O21V4D2v06IzQ7DE0cS6iZ/q5Ba6n+JlOHe2XNJEeOOIzNF7R03fI9BRB5tEk4MwOPYWVNuisoU/ilaN5SliOK5/35yPGGUMjLkOT5NXV1ZVcADNXNYSZbx5Dp5WD73Sz0Bxw/hmrvqHjZKOrqJ7L+qiCQjEd7Zc0Jx5uQ294OjD97TdTp3WHhqEtoAXpV/GKjj5FnCUm1XeNvIu9kTt3bm1mNZsVbK4MzjR0BmfyrARt4yxMj2UlLTgPgeYQ8Ow19CXi7Nezrs+t+vWgy9G6SPskTaQHBWjb0BrqvtXlcKMQ7QM8U9BYQJqONg1NmoGy2TfAL14KZwCNl+ROLrdUVknzrTzRxFkrmjtp0CJojTS2JNc4uEAzgg+Bs6SZPDsN/S9wDjx32Xo2phuqPrfyeCPvaMe0w0Ja0jvoNzRzFavv1jyYDqaOY+gpw9DgGZs08z0ineIcdoo0tuCMpXAOSyXBeSVBGiTHGv08cWaAMpEWqjPRhs7ijNeHhPnE8WGqOfKM7erQTx7oCTgbs2eHnkvwE95NQJp/I+VoW9JMKmmcWtrS0Jrqq+EVEho1bl/B1HJ61KwcMfOydOUgzssJ0Xf5pgytoAbDeAnOWApnIp0qWgQthhaao6DDSwytkM5kbOyVkKGjl4Vlt6GJc3cV5y4BupCeW32+kfCcuxHulrS2dP+hI4ahsWsYeiMXVpa/rUKNAUcK9KkM0CfDFqqJc2rotHMYhmZSQzOa6Hxua6IR3aG3MDQFzRevYWV7hjJ0/Q6NwQZxLqJn+rncD0faqeN3fkmnlu4aGPyJgtZIi6C1oSVXrl7tW50PVwq/A9SpoYVnUTTfuBXS3EmNVoImznftDo2VVui4EqK1oZWjGdvQY6T5BGCeJc4J0eaUQ+Tc35XY2T/c0NONst+GLf58Uv+4Q887lKYTnLEtQwvSV65cXFtdBtSg+ttTqaE11CAZC+95QdPQlp9paOw6HTr9VJj4mRtLenRY0jr00C4xdPWS7Oix4RnQrIB2G/og5IyQZnu24dJz6e92NzS+80janneIppPSYRtakK7m4u078+FOIagmviSZROeOc8SlQ5i5VTTSjNPQ9LL8uUXl0H7GNgzNW4Unjh+FmSPN4JlIOzs08vCBHo2ztrNLz2V9Nv9On+woJGlmk2fsnKYvWobWQEturtx94zmEVJNnVTsizGnl4MKfBs7OKUdNReu+Ed9zNBuVA6myHILPf4sUs/BsGNqYcsQpnW1nn55b+Ozz9pj2S9q2NJEWTVPNfkNLrq6vLr+MayqkWkpH5BkRpM1vVmxDa6RBtGnobH/GTg39vGK69ij6ZvVSIUrGSIZlp6F1HhroUTgzBs6WnlvhQYxNKh73GUNpl6VF005DJ0ifO3fu4tqtV58j1cR687sV6Rt4N2A2DV2ndaxGojXU3LahuXTpiHk7JJSMy7NMyrO7Qz9JOQvODj3fX1PPbXR2w4Fz8r1hcUtD04+B6QKGPocVgGYW1lbvntyQ9bf5Gl1D0bahhWqrc9DPGueoZ6zE0K/xM6HVoXkHCx3j2PDiTMgsV0o0tmfKcbC3W+Nsl2d79NxOB5GKfG+oZ9JuSwvVwnQhQ6tcWV+59f5bvH4FWQvOatDhKBxUdGpoy9HqE+GWYzviTKjfZGDloWMjl2diZrHJM//wG1poZtXQOPvLc6rne9pv+OyY3/mrtLa0ZrobTKtBtNfQ1aVz4/bq62/wQuFbkLWWs+ba16LpZ2Xomkc5NM9IMuWgonmnUFDWEY6dHZqKZtOgm4vZmVF6Lv2T+Znda9IepEG0bh70dGFD65xHzi2sr7z76hsvI+HiFRq1pHaH1jhjaz17kMZOBM3agc6xcaPw4w/DQO4ykuBsVY6f68yhnxGazcmGjbN97nmfFA7VpK1vDv2WFqSZXjDdmKHPh80Vs3BjbeXWB6++ES8UnqwirTq0VTuMEm0aWlq05LWVjStYb4+9MoqmTJKZmVo8S+XwG/qZA/2KZkbk7BxtSNrxHJI/ougGLU2iazK9XUOfl9d5HZK9vrL67vu8gsVLKhFtMTTerQ59K23QBtLIC9ivhYW8+faH6BZHRxYjyYJz2KafPYamoJ+KNAvOPjvb5Vl4bumbsI1fzhJJuy2djjwE6W5h2m9orWgaOoX6N+Z85cb62soL77z3wevxClb14hXBNgyNKJ7DK5t3VjevYL32/Jtvf/zhKydGjx8dXpQA6ATpBg0daO7WNDvs7CnP95T6VyaaF/6dyXRhS1PTKdOYTw9edRs6VXQNmLGwsVSuL1UWbtxcX3uNgL9PtBl9nfDdTN7LX8EShIfw45bDI8in1SwinxpAzzRmaNTmnu5Ezm47t/elwR14Nvo9jVtaI01RHzpcwNBVOXMZhv5N58dMriPhR0oQXHf6cGwMjx8Pz1MMCV/l4bwQfylwdJRP+Qw/ZjlMhHWqOFcXtga6eIcWmKFm0OyWM3F2l+d2PYrkLh6OKm0jbWua6cHkw2toUbQYGu/iZy6+KZjD0vk1m78y+SPNMKNhbq6h/yPMpNkvZ9vOqZ5b5Jn8zYxUaa+l/Zpm+gG1y9DEGbENTZrxpgX9mwb6RwtorNpAD/sNXbxDszT3dic0a5zddtZybr9bgw2fwdNTacPSLk0zmunu/kOHr2zf0HhrvqFHdtrQNQSNAOaeejQ7y4Y92thXX6XUiVml/ZbWmuZbJj2o1K4ObU45xNA6e2Vof4fmJ0ChWSIw++Rc185t8tSNZlVprWkbaVvT0j1E1DD1YzmqUz9nOnRLGnpGsxzNnNDM+OWs7NzmN7qbXKXF0n5NW54m1FD1Y0euMKmhW79D09FkWVqGTbMtZ41zpzsXwFmm0ral/Zo2PU2moeqBQ4fP1ZpDK0Ofa0VDR5Y5zBCaPcVZy9lh546fvafwsJ2W1pp2eppQk+rHDhNjw9Ct2KFnnjo40N9jw5xUDaecbTu35X3uHUfab2lb04K0zTQLiKa6ZaYceOk88xQLs4bZVrNNsy1nsfO+uZHShNP/6Vzaz/SDDqjp6oD1Un7KUfIOnUO5v0fDbNEsPDtwtr4U3AcXups3lvZr2va0zTShFqzRQQ6T6HzKZmgImobGFGOgtwfprgOzcrOPZtvObfAw/t2OdGm7TPuZfjAZUJtQs4QMQNdguNQdekPKfpiFZ5UHXHK27bzvv+gu8PtZwrSlaR/TiA01qVZY9wPrxw5fF5rLYuhAskZZw2z3DMpZ01xYzvfs4zOihaG2uzSJdjJdHGpy3dPfK2SD4N3v0DHgGO2CIHtYJszFaRactZzb/NFezQ15Tpi2kPYzbUBtUk2sEZKNin199wxNjp8SjgVlD8sCs7Rmm2ZTzmZ1btOHLzY5xnctBZnWjTqF2od1JHvgULA26QbQjRpaBwwHGwNjcmySTJYtMWPbarZptpuzprnTnYvRHJHecjRtIk2mNdS2qb1UC9hCd3/vJt/HCp2HzhIsCNskC8quloHlpdmWc2fsvPNNGtvWtJ9p29RCtYm1DbZGnOkNGQg5kM0A0sv0IwpfF8eCst0yJCnMNs1uObf3kxd3KbGsOTRtMm1DjTioFq6dbBdPt5kuG2XNspjZVrPDzZRz57wG0yRN2w/Fo6f9TNumJhsaaz/YkoIE+0HWWk5ptmG2aSbOtpw7552bQrU9mybUflGbqk4o6bLT3axojm2U046Rwuyj+T5LzmLnDshNQFpmHg5PC9N+qNMGkmBtpukUM+o/LKHZC7PtZlvOnePOO597FdMG0oDaybRQbbs6pafLn0bx9ZOMVQBmp5uxOgPnJkU0TaJtpu9vFGquWlxvgrU7Sf6vsrWsWbZhJs22mzty3tWIprkKM02oNdUG1qmuE7aaijEXY2u5cZjFzR0570nuxa7taT2fxvJDTaqdthbaUt4aQVjrGNuNMln2wiw0a5w7ct673Ov7iEiobVP7qda+trTNVTBdNsTCMUl2sEyYbZqlNtu9uXOv6v/2zkU3QSAAgj3+/6P70Ixs7DYbLXDKzhExbexzMh4IuD+caGw7raHOpUZrH+xE0J/FDhaV2Bc5UBmXozT7NvcaGweA1HRaWFyokTqxGq292RuAxZjsVM5d9ns0VOeKfCQoTVZMqJNSY3WuNW4ztpUYkwOXkdmk2W0F9hIbhzK4xWh12pcaq1OtETv1Ox8QmJy67MusaT7nm6LMzEVnPbPWh5pSe6vR2oq9F3icq4zMqnOc5m4KzsGg00gdlxqrndY7q43Hscm47Mrs08w2YE8QnA9mf0GoKbWxOvcaNnUYkxOVsdmWWXXupHlerj4noSbVsdYqdk6qbS6yV5kw2zIDf6meUDU1YyV2UGpanWmN2puDx7nKdFn5S+buppsc0dlaDYDUsdewn8SYHHTZlZmXTVrl12J8cMRHkGqkzsX2PChwYnKYZWy2Ze5hGq8F/7FVr8NUW6kxe0fwOK8yYTZlrswvDbMPSm1a7Wp9hNponKusXW6Z35TBSl57SWON2BEbKgwLJtsut8xngA16Up22WoN9GIicZlnD3AM03o/BimZ5recQe9Ei51Wmy31Dn3dmdfwNw7AgtgXbdtE4V5ku9zWTk7BKtXid9drb/ZDhiw6wDDHZdrmXCD0Tl0zTaiSANNi56Doy8iRzyFyvpnhqBjfrroEVez+GKbLJ8vfv0k3AM3Oz+bJmAas2YwOwGIzJjO5jLmunCRtiX0fE8pzf8ngIoozTNLlbgEXMJnXiixE7s9wPS57kzphLwE0YjGYcwIdMk3XfY8+aKjE8lRNsfHok24/nmBU/zvfS+UUJUVfk9FEMk2w/qTePlgbzfTC4+5XLf3mNVeup67B63y9i7G/q8jidV3zRU1jLpjB3RXPS7Rarun5av3Cnx2Un0AzzuOMXlNUP3s0nOjkuUzD0nhouWUdd3brroURlPvBTaHZLKaWUUkoppZRSSimllFJKKaWUkvEJUvwPaaNI8zUAAAAASUVORK5CYII=;" parent="1" vertex="1">
          <mxGeometry x="515.99" y="179.19" width="85" height="85" as="geometry" />
        </mxCell>
      </root>
    </mxGraphModel>
  </diagram>
</mxfile>
